<svg width="113" height="98" viewBox="0 0 113 98" fill="none" xmlns="http://www.w3.org/2000/svg">
<path d="M45.3 21L10.3 9V77.5L45.3 89.5L74.8 77.5L105.8 89.5V21L74.8 9L45.3 21Z" stroke="black"/>
<path d="M45.3 21V89M74.8 9V77.5" stroke="black" stroke-dasharray="2 2"/>
<path d="M13.8 19.7971L15.7408 18.9409C16.8127 18.468 18.065 18.9536 18.5379 20.0255C19.0108 21.0974 20.263 21.583 21.335 21.1102C22.4069 20.6373 23.6591 21.1229 24.132 22.1948C24.6049 23.2667 25.8572 23.7524 26.9291 23.2795C28.001 22.8066 29.2533 23.2922 29.7261 24.3641L29.8388 24.6197C30.2494 25.5505 31.3369 25.9721 32.2677 25.5615L32.8793 25.2917C33.6789 24.939 34.5954 25.4407 34.7291 26.3042C34.8629 27.1678 35.7794 27.6695 36.579 27.3168L37.1906 27.047C38.1214 26.6364 39.2088 27.058 39.6194 27.9888L40.5884 30.1852" stroke="black"/>
<path d="M77.4979 21.576L79.46 20.28C80.419 19.6466 81.7162 20.1496 81.9975 21.264C82.2787 22.3783 83.5759 22.8814 84.5349 22.248C85.4939 21.6145 86.7912 22.1176 87.0724 23.232C87.3536 24.3463 88.6508 24.8494 89.6098 24.2159C90.5688 23.5825 91.8661 24.0856 92.1473 25.1999L92.2201 25.4884C92.4657 26.4618 93.5988 26.9012 94.4364 26.3479L94.9176 26.0301C95.6675 25.5348 96.669 26.0614 96.6859 26.96C96.7029 27.8586 97.7044 28.3852 98.4543 27.8898L98.9355 27.572C99.7731 27.0187 100.906 27.4581 101.152 28.4315L101.8 31" stroke="black"/>
<path d="M48.9318 54.0131L49.5988 51.6103C49.9045 50.5089 51.2643 50.1169 52.1094 50.8865C52.9545 51.6562 54.3143 51.2642 54.62 50.1628C54.9257 49.0614 56.2855 48.6695 57.1306 49.4391C57.9757 50.2088 59.3354 49.8168 59.6412 48.7154C59.9469 47.614 61.3067 47.2221 62.1518 47.9917L62.3819 48.2014C63.1215 48.8749 64.3115 48.5319 64.5791 47.568L64.7264 47.0371C64.9688 46.164 66.1145 45.9608 66.6424 46.6973C67.1702 47.4337 68.316 47.2305 68.5583 46.3574L68.7057 45.8265C68.9733 44.8626 70.1633 44.5196 70.9028 45.1932L72.9766 47.0819" stroke="black"/>
</svg>
