<svg width="123" height="91" viewBox="0 0 123 91" fill="none" xmlns="http://www.w3.org/2000/svg">
<rect x="5.6" y="36.6" width="82.8" height="44.8" stroke="black" stroke-width="1.2"/>
<path d="M29 31V16H113V62H94.5" stroke="black" stroke-width="1.2"/>
<path d="M10 48L11.5 46.5C12.3284 45.6716 13.6716 45.6716 14.5 46.5C15.3284 47.3284 16.6716 47.3284 17.5 46.5C18.3284 45.6716 19.6716 45.6716 20.5 46.5C21.3284 47.3284 22.6716 47.3284 23.5 46.5C24.3284 45.6716 25.6716 45.6716 26.5 46.5L26.6975 46.6975C27.4168 47.4168 28.5832 47.4168 29.3025 46.6975L29.7753 46.2247C30.3932 45.6068 31.4291 45.7432 31.866 46.5C32.303 47.2568 33.3389 47.3932 33.9568 46.7753L34.4295 46.3025C35.1489 45.5832 36.3152 45.5832 37.0346 46.3025L38.732 48" stroke="black"/>
<path d="M53 76L54.5 74.5C55.3284 73.6716 56.6716 73.6716 57.5 74.5C58.3284 75.3284 59.6716 75.3284 60.5 74.5C61.3284 73.6716 62.6716 73.6716 63.5 74.5C64.3284 75.3284 65.6716 75.3284 66.5 74.5C67.3284 73.6716 68.6716 73.6716 69.5 74.5L69.6975 74.6975C70.4168 75.4168 71.5832 75.4168 72.3025 74.6975L72.7753 74.2247C73.3932 73.6068 74.4291 73.7432 74.866 74.5C75.303 75.2568 76.3389 75.3932 76.9568 74.7753L77.4295 74.3025C78.1489 73.5832 79.3152 73.5832 80.0346 74.3025L81.732 76" stroke="black"/>
<path d="M81 41C81 47.0751 76.0751 52 70 52C63.9249 52 59 47.0751 59 41" stroke="black" stroke-width="1.2"/>
<path d="M105 21C105 27.0751 100.075 32 94 32C87.9249 32 83 27.0751 83 21" stroke="black" stroke-width="1.2"/>
</svg>
