<svg width="127" height="119" viewBox="0 0 127 119" fill="none" xmlns="http://www.w3.org/2000/svg">
<path d="M64.1 88L116.1 101.5V25L64.1 11L14.6 24V101.5L26 98.4454" stroke="black"/>
<path d="M26.1 32.5C52.1 26 55.6 20.5 64.6 12V88C56.1 98.5 46.6 102 26.1 105.5V32.5Z" stroke="black"/>
<path d="M113.6 25.5V101" stroke="black" stroke-dasharray="2 2"/>
<path d="M16.6 24V99.5" stroke="black" stroke-dasharray="2 2"/>
<path d="M73.3673 26.1889L75.7373 23.7891C76.7816 22.7317 78.5802 23.2156 78.9528 24.6544C79.3254 26.0932 81.124 26.5772 82.1683 25.5197C83.2126 24.4622 85.0112 24.9462 85.3838 26.3849C85.7564 27.8237 87.555 28.3077 88.5993 27.2502C89.6437 26.1927 91.4423 26.6767 91.8149 28.1155L91.9197 28.5204C92.2462 29.7808 93.8216 30.2047 94.7365 29.2784L95.2314 28.7772C96.0644 27.9337 97.5026 28.4795 97.5664 29.6632C97.6302 30.8468 99.0684 31.3926 99.9014 30.5491L100.396 30.0479C101.311 29.1216 102.887 29.5455 103.213 30.8059L104.164 34.4759" stroke="black"/>
</svg>
