<svg width="123" height="117" viewBox="0 0 123 117" fill="none" xmlns="http://www.w3.org/2000/svg">
<path d="M112.1 23L60.1 9L10.6 22V99.5L60.1 86L112.1 99.5V23Z" stroke="black"/>
<path d="M22.1 30.5C48.1 24 51.6 18.5 60.6 10V86C52.1 96.5 42.6 100 22.1 103.5V30.5Z" fill="#E8E8E8" stroke="black"/>
<path d="M109.6 23.5V99" stroke="black" stroke-dasharray="2 2"/>
<path d="M12.6 22V97.5" stroke="black" stroke-dasharray="2 2"/>
<path d="M69.3673 24.1889L71.7373 21.7891C72.7816 20.7317 74.5802 21.2156 74.9528 22.6544C75.3254 24.0932 77.124 24.5772 78.1683 23.5197C79.2126 22.4622 81.0112 22.9462 81.3838 24.3849C81.7564 25.8237 83.555 26.3077 84.5993 25.2502C85.6437 24.1927 87.4423 24.6767 87.8149 26.1155L87.9197 26.5204C88.2462 27.7808 89.8216 28.2047 90.7365 27.2784L91.2314 26.7772C92.0644 25.9337 93.5026 26.4795 93.5664 27.6632C93.6302 28.8468 95.0684 29.3926 95.9014 28.5491L96.3963 28.0479C97.3112 27.1216 98.8866 27.5455 99.2131 28.8059L100.164 32.4759" stroke="black"/>
</svg>
