<svg width="133" height="107" viewBox="0 0 133 107" fill="none" xmlns="http://www.w3.org/2000/svg">
<path d="M83.5 6.59961C91.8587 6.59961 99.5242 8.10108 105.078 10.5049C107.856 11.7073 110.079 13.1234 111.598 14.666C113.114 16.2064 113.9 17.8394 113.9 19.5C113.9 21.1606 113.114 22.7936 111.598 24.334C110.079 25.8766 107.856 27.2927 105.078 28.4951C99.5242 30.8989 91.8587 32.4004 83.5 32.4004C75.1413 32.4004 67.4758 30.8989 61.9219 28.4951C59.1439 27.2927 56.9213 25.8766 55.4023 24.334C53.8857 22.7936 53.0996 21.1606 53.0996 19.5C53.0996 17.8394 53.8857 16.2064 55.4023 14.666C56.9213 13.1234 59.1439 11.7073 61.9219 10.5049C67.4758 8.10108 75.1413 6.59961 83.5 6.59961Z" stroke="black" stroke-width="1.2"/>
<path d="M57 89.1881C62.2534 93.2574 72.1531 96 83.5 96C100.345 96 114 89.9558 114 82.5V76.5" stroke="black" stroke-width="1.2"/>
<path d="M53 51V19.5" stroke="black" stroke-width="1.2"/>
<path d="M114 67.5V46.5" stroke="black" stroke-width="1.2"/>
<path d="M114 36V19.5" stroke="black" stroke-width="1.2"/>
<path d="M109.98 45.023C113.48 45.3563 119.98 48.823 119.98 58.023C119.98 63.9006 117.531 66.4178 114.98 67.2954M109.98 45.023C108.147 45.6896 104.48 47.023 103.48 43.523C102.48 40.023 103.073 38.1587 104.98 37.523C107.98 36.523 110.98 36.023 110.98 36.023C116.313 35.6896 128.48 38.823 128.48 56.023C128.48 73.223 113.313 78.3563 107.48 78.023C105.313 78.523 104.38 76.923 103.98 72.523C103.58 68.123 108.48 67.3563 110.98 67.523C112.063 67.7637 113.538 67.7915 114.98 67.2954M109.98 45.023L105.98 44.523M114.98 67.2954L108.98 69.523" stroke="black" stroke-width="1.2"/>
<path d="M58.0001 46.9395L60.1178 43.2268C60.8145 42.0055 62.6613 42.3505 62.87 43.741C63.0788 45.1315 64.9256 45.4765 65.6223 44.2552C66.319 43.0338 68.1658 43.3789 68.3746 44.7693C68.5833 46.1598 70.4302 46.5048 71.1268 45.2835C71.8235 44.0622 73.6703 44.4072 73.8791 45.7977L73.9556 46.3074C74.1391 47.5302 75.7633 47.8336 76.3759 46.7596L76.7085 46.1766C77.2742 45.1848 78.7873 45.5757 78.802 46.7173C78.8166 47.859 80.3297 48.2498 80.8955 47.2581L81.228 46.6751C81.8406 45.601 83.4648 45.9045 83.6483 47.1272L84.3594 51.8638" stroke="black"/>
<path d="M64.5 61C64.5 61 65.345 76.2562 61.5 83.5C58.5805 89.0002 53 93.5 53 93.5" stroke="black"/>
<path d="M43.8887 82.4248L44.0273 82.5918L44.2412 82.6318L49.1953 83.5488L46.0225 86.373L45.7949 86.5752L45.8242 86.8789L46.1943 90.7314L41.1748 89.2012L41 89.1475L40.8252 89.2012L35.8047 90.7314L36.1758 86.8789L36.2051 86.5752L35.9775 86.373L32.8037 83.5488L37.7588 82.6318L37.9727 82.5918L38.1113 82.4248L41 78.9395L43.8887 82.4248Z" stroke="black" stroke-width="1.2"/>
<path d="M41 49.5996C47.5473 49.5996 53.4451 51.0387 57.6846 53.335C61.9477 55.6441 64.4004 58.7348 64.4004 62C64.4004 65.2652 61.9477 68.3559 57.6846 70.665C53.4451 72.9613 47.5473 74.4004 41 74.4004C34.4527 74.4004 28.5549 72.9613 24.3154 70.665C20.0523 68.3559 17.5996 65.2652 17.5996 62C17.5996 58.7348 20.0523 55.6441 24.3154 53.335C28.5549 51.0387 34.4527 49.5996 41 49.5996Z" stroke="black" stroke-width="1.2"/>
<path d="M53 93C53 96.3137 47.8513 99 41.5 99C35.1487 99 30 96.3137 30 93" stroke="black" stroke-width="1.2"/>
<path d="M17.5 61.5C17.5 61.5 16.2367 75.7134 20 83C22.9839 88.7775 30 93.5 30 93.5" stroke="black"/>
<path d="M17.5 71.5C15.6926 65.1739 4.49997 61.5 3.2473 70.5M21.5 85.5C16.5 79 5.49996 85.4999 3.5 74C3.26868 72.6698 3.19313 71.5078 3.2473 70.5M3.2473 70.5C2.99819 68.3333 4 64.1 6 62.5C8.5 60.5 16.9999 62 17.9999 65.5M19 80C17 77 6.70563 79.5 3.70563 75" stroke="black"/>
</svg>
