<svg width="113" height="113" viewBox="0 0 113 113" fill="none" xmlns="http://www.w3.org/2000/svg">
<path d="M73 24.2093L102.947 27.6833L93.6136 108.144L36 101.46L36.6914 95.5" stroke="black" stroke-width="1.2"/>
<rect x="7.0504" y="15.2405" width="56.8" height="79.8" transform="rotate(-11.7834 7.0504 15.2405)" stroke="black" stroke-width="1.2"/>
<path d="M46.2837 28.2743L46.4518 28.4509L46.6951 28.4604L55.6994 28.804L51.4087 36.7279L51.2925 36.9424L51.3592 37.1779L53.8135 45.8478L44.9525 44.2151L44.7118 44.1701L44.5097 44.3067L37.0223 49.3206L35.8371 40.3882L35.8048 40.1456L35.6131 39.9948L28.5302 34.4232L36.6595 30.536L36.88 30.4306L36.9643 30.2017L40.0732 21.7424L46.2837 28.2743Z" stroke="black" stroke-width="1.2"/>
<path d="M26.5 69L66 60" stroke="black" stroke-width="1.2" stroke-dasharray="2.4 2.4"/>
<path d="M34.2904 80.4727L35.2029 77.3087C35.6005 75.9301 37.3585 75.5258 38.3183 76.5923C39.2781 77.6587 41.0362 77.2545 41.4338 75.8759C41.8313 74.4974 43.5894 74.0931 44.5492 75.1596C45.509 76.226 47.267 75.8217 47.6646 74.4432C48.0622 73.0646 49.8202 72.6604 50.78 73.7268L51.0528 74.0299C51.8937 74.9643 53.4341 74.6101 53.7825 73.4022L53.9702 72.7514C54.2877 71.6502 55.767 71.4603 56.3525 72.4455C56.938 73.4307 58.4173 73.2407 58.7348 72.1396L58.9225 71.4887C59.2709 70.2808 60.8113 69.9266 61.6522 70.861L64.1279 73.6118" stroke="black"/>
<path d="M74.131 31.9851L75.4251 35.0132C75.989 36.3325 77.7834 36.5178 78.605 35.3415C79.4265 34.1653 81.2209 34.3506 81.7848 35.6699L81.945 36.0448C82.4391 37.2008 84.0113 37.3631 84.7311 36.3325L85.119 35.7772C85.7752 34.8377 87.2366 35.1357 87.4724 36.2573C87.7083 37.3788 89.1696 37.6768 89.8259 36.7373L90.2137 36.182C90.9336 35.1514 92.5058 35.3137 92.9998 36.4697L94.4542 39.8727" stroke="black"/>
<path d="M49.9999 95.7278L51.8856 93.0281C52.7072 91.8518 54.5016 92.0371 55.0654 93.3564C55.6293 94.6757 57.4237 94.861 58.2452 93.6848C59.0668 92.5086 60.8612 92.6939 61.425 94.0132C61.9889 95.3325 63.7833 95.5178 64.6048 94.3415C65.4264 93.1653 67.2208 93.3506 67.7847 94.6699L67.9449 95.0448C68.4389 96.2008 70.0112 96.3631 70.731 95.3325L71.1189 94.7772C71.7751 93.8377 73.2365 94.1357 73.4723 95.2572C73.7082 96.3787 75.1695 96.6768 75.8258 95.7373L76.2136 95.182C76.9335 94.1513 78.5057 94.3137 78.9997 95.4697L80.4541 98.8727" stroke="black"/>
</svg>
