<svg width="101" height="105" viewBox="0 0 101 105" fill="none" xmlns="http://www.w3.org/2000/svg">
<path d="M65 23.5L22.5 7.5V86.134L65 101V23.5Z" stroke="black"/>
<path d="M22 7H82V85.5H65" stroke="black"/>
<path d="M65 75H72L82 85.5" stroke="black"/>
<path d="M72.5 75V15L81.5 7" stroke="black"/>
<path d="M26 31.7678L28.4418 30.5149C29.7652 29.8359 31.387 30.414 31.9825 31.777C32.578 33.1399 34.1998 33.718 35.5232 33.039C36.8465 32.3601 38.4683 32.9382 39.0638 34.3011C39.6593 35.6641 41.2812 36.2422 42.6045 35.5632C43.9278 34.8842 45.5497 35.4623 46.1452 36.8252L46.2887 37.1537C46.8064 38.3387 48.2164 38.8412 49.3668 38.2509L50.1032 37.8731C51.1002 37.3616 52.3056 37.9754 52.4783 39.0826C52.6509 40.1898 53.8563 40.8037 54.8533 40.2921L55.5897 39.9143C56.7401 39.324 58.1501 39.8266 58.6678 41.0115L59.9102 43.855" stroke="black"/>
<path d="M23 73L65 88" stroke="black" stroke-dasharray="2 2"/>
</svg>
