<svg width="119" height="88" viewBox="0 0 119 88" fill="none" xmlns="http://www.w3.org/2000/svg">
<path d="M50.5 25H15V75H102V25H68.5" stroke="black" stroke-width="1.2"/>
<path d="M94.7986 64C95.5358 59.1082 94.6511 49.4642 85.2143 50.0233C75.7775 50.5824 75.3843 59.574 76.3673 64" stroke="black" stroke-width="1.2"/>
<circle cx="84.9999" cy="41" r="5.4" stroke="black" stroke-width="1.2"/>
<path d="M68.9999 36L68.9999 64" stroke="black" stroke-dasharray="2 2"/>
<path d="M54.9999 15H63.9999" stroke="black" stroke-dasharray="2 2"/>
<path d="M22 38L23.8794 36C24.898 34.9161 26.6198 34.9161 27.6383 36C28.6569 37.0839 30.3786 37.0839 31.3972 36C32.4157 34.9161 34.1375 34.9161 35.156 36C36.1746 37.0839 37.8964 37.0839 38.9149 36C39.9335 34.9161 41.6552 34.9161 42.6738 36L42.9193 36.2613C43.8048 37.2036 45.3016 37.2036 46.1871 36.2613L46.7539 35.6581C47.5213 34.8416 48.8628 35.0151 49.3972 36C49.9315 36.9849 51.2731 37.1584 52.0405 36.3419L52.6072 35.7387C53.4927 34.7964 54.9896 34.7964 55.8751 35.7387L58 38" stroke="black"/>
<path d="M22 51L23.8794 49C24.898 47.9161 26.6198 47.9161 27.6383 49C28.6569 50.0839 30.3786 50.0839 31.3972 49C32.4157 47.9161 34.1375 47.9161 35.156 49C36.1746 50.0839 37.8964 50.0839 38.9149 49C39.9335 47.9161 41.6552 47.9161 42.6738 49L44.5532 51" stroke="black"/>
<rect x="54.5999" y="7.6" width="9.8" height="21.8" rx="2.4" stroke="black" stroke-width="1.2"/>
</svg>
