<svg width="132" height="91" viewBox="0 0 132 91" fill="none" xmlns="http://www.w3.org/2000/svg">
<path d="M53 51V76H5V11H53V34.5" stroke="black" stroke-width="1.2"/>
<path d="M79 17V6H127V71H123" stroke="black" stroke-width="1.2"/>
<rect x="72.6" y="19.6" width="46.8" height="63.8" stroke="black" stroke-width="1.2"/>
<path d="M10 20L11.0695 18.5C11.5934 17.7654 12.6848 17.7654 13.2086 18.5C13.7324 19.2346 14.8239 19.2346 15.3477 18.5C15.8715 17.7654 16.963 17.7654 17.4868 18.5C18.0106 19.2346 19.1021 19.2346 19.6259 18.5C20.1497 17.7654 21.2412 17.7654 21.765 18.5L21.9004 18.6899C22.3579 19.3315 23.3112 19.3315 23.7687 18.6899L24.0319 18.3208C24.4413 17.7466 25.3227 17.8479 25.5911 18.5C25.8596 19.1521 26.741 19.2534 27.1504 18.6792L27.4136 18.3101C27.8711 17.6685 28.8244 17.6685 29.2819 18.3101L29.5527 18.6899C30.0102 19.3315 30.9635 19.3315 31.421 18.6899L31.6842 18.3208C32.0936 17.7466 32.975 17.8479 33.2434 18.5C33.5119 19.1521 34.3933 19.2534 34.8027 18.6792L36 17" stroke="black" stroke-width="1.2"/>
<path d="M84 15L85.0695 13.5C85.5934 12.7654 86.6848 12.7654 87.2086 13.5C87.7324 14.2346 88.8239 14.2346 89.3477 13.5C89.8715 12.7654 90.963 12.7654 91.4868 13.5C92.0106 14.2346 93.1021 14.2346 93.6259 13.5C94.1497 12.7654 95.2412 12.7654 95.765 13.5L95.9004 13.6899C96.3579 14.3315 97.3112 14.3315 97.7687 13.6899L98.0319 13.3208C98.4413 12.7466 99.3227 12.8479 99.5911 13.5C99.8596 14.1521 100.741 14.2534 101.15 13.6792L101.414 13.3101C101.871 12.6685 102.824 12.6685 103.282 13.3101L103.553 13.6899C104.01 14.3315 104.963 14.3315 105.421 13.6899L105.684 13.3208C106.094 12.7466 106.975 12.8479 107.243 13.5C107.512 14.1521 108.393 14.2534 108.803 13.6792L110 12" stroke="black" stroke-width="1.2"/>
<path d="M77 28L78.0695 26.5C78.5934 25.7654 79.6848 25.7654 80.2086 26.5C80.7324 27.2346 81.8239 27.2346 82.3477 26.5C82.8715 25.7654 83.963 25.7654 84.4868 26.5C85.0106 27.2346 86.1021 27.2346 86.6259 26.5C87.1497 25.7654 88.2412 25.7654 88.765 26.5L88.9004 26.6899C89.3579 27.3315 90.3112 27.3315 90.7687 26.6899L91.0319 26.3208C91.4413 25.7466 92.3227 25.8479 92.5911 26.5C92.8596 27.1521 93.741 27.2534 94.1504 26.6792L94.4136 26.3101C94.8711 25.6685 95.8244 25.6685 96.2819 26.3101L96.5527 26.6899C97.0102 27.3315 97.9635 27.3315 98.421 26.6899L98.6842 26.3208C99.0936 25.7466 99.975 25.8479 100.243 26.5C100.512 27.1521 101.393 27.2534 101.803 26.6792L103 25" stroke="black" stroke-width="1.2"/>
<path d="M44.1807 56.373L44.3125 56.5723L44.5449 56.626L48.4814 57.5371L45.8906 60.4199L45.7188 60.6113L45.7383 60.8672L46.0312 64.6689L42.2139 63.2148L42 63.1328L41.7861 63.2148L37.9678 64.6689L38.2617 60.8672L38.2812 60.6113L38.1094 60.4199L35.5176 57.5371L39.4551 56.626L39.6875 56.5723L39.8193 56.373L42 53.085L44.1807 56.373Z" stroke="black" stroke-width="1.2"/>
<path d="M111.181 64.373L111.312 64.5723L111.545 64.626L115.481 65.5371L112.891 68.4199L112.719 68.6113L112.738 68.8672L113.031 72.6689L109.214 71.2148L109 71.1328L108.786 71.2148L104.968 72.6689L105.262 68.8672L105.281 68.6113L105.109 68.4199L102.518 65.5371L106.455 64.626L106.688 64.5723L106.819 64.373L109 61.085L111.181 64.373Z" stroke="black" stroke-width="1.2"/>
<path d="M65 43L55 37.2265L55 48.7735L65 43ZM44 43L44 44L56 44L56 43L56 42L44 42L44 43Z" fill="black"/>
</svg>
