<svg width="135" height="134" viewBox="0 0 135 134" fill="none" xmlns="http://www.w3.org/2000/svg">
<path d="M64.8533 70.6877L75.0592 79.7288M64.8533 70.6877C64.8533 70.6877 77.48 52.3221 86.9218 41.6638C96.3637 31.0056 113.073 16.2564 113.073 16.2564L123.279 25.2975C123.279 25.2975 111.353 44.2427 101.89 54.9241C92.4281 65.6055 75.0592 79.7288 75.0592 79.7288M64.8533 70.6877C62.5139 71.044 56.1746 71.9856 49.844 78.0352C43.5134 84.0848 42.2814 85.3771 33.1916 85.3771C39.5545 95.3759 55.262 100.541 64.8533 94.4669C74.0891 88.6182 74.8127 82.7487 75.0592 79.7288" stroke="black" stroke-width="1.2"/>
<path d="M70.2002 63.2811L81.7669 73.5277" stroke="black" stroke-width="1.2" stroke-dasharray="2 2"/>
<path d="M93 79.0388V123H9V16H91V26.7829" stroke="black" stroke-width="1.2"/>
<path d="M55.7506 86.1008C55.0256 80.2427 49.4067 80.6088 46.6879 81.5241L42.1565 84.2701L33.5 85.5C34.7084 87.0255 37.7498 90.492 42 93C44.6624 94.5711 50 97 54.5 97C55.1042 95.4745 56.4757 91.9588 55.7506 86.1008Z" fill="black"/>
</svg>
