<svg width="107" height="110" viewBox="0 0 107 110" fill="none" xmlns="http://www.w3.org/2000/svg">
<path d="M76.8775 19.8019L102.672 83.6792L50.7462 104.648L24.9515 40.7706L31.4817 26.1507L61.0083 14.2273L76.8775 19.8019Z" stroke="black" stroke-width="1.2"/>
<circle cx="56.3465" cy="57.0912" r="5.4" transform="rotate(-21.9897 56.3465 57.0912)" stroke="black" stroke-width="1.2"/>
<path d="M71.3533 63.5409C73.8181 62.5456 76.7838 63.9015 77.9193 66.7135C79.0549 69.5254 77.8623 72.5606 75.3976 73.5559C72.9328 74.5512 69.9671 73.1952 68.8316 70.3833C67.6961 67.5714 68.8886 64.5362 71.3533 63.5409Z" stroke="black" stroke-width="1.2"/>
<line y1="-0.6" x2="36.2362" y2="-0.6" transform="matrix(-0.191743 0.981445 -0.985068 -0.172166 66.7988 45.0516)" stroke="black" stroke-width="1.2"/>
<path d="M76.5833 43.9409C77.3064 44.3876 78.004 44.876 78.6736 45.4032L78.3043 45.8736C78.9531 46.3846 79.5746 46.9333 80.1639 47.5186L80.5852 47.0936C81.1862 47.6905 81.7546 48.3246 82.2878 48.9938L81.8202 49.3669C82.3323 50.0096 82.8104 50.6864 83.251 51.3947L83.7582 51.0782C84.2036 51.7941 84.612 52.5412 84.9792 53.3192L84.4378 53.5747C84.6135 53.9471 84.7803 54.3264 84.9364 54.713C85.0925 55.0996 85.2359 55.4884 85.368 55.8784L85.9346 55.6854C86.2107 56.5002 86.4356 57.3214 86.6122 58.1458L86.0278 58.2712C86.2026 59.0868 86.3286 59.9058 86.4064 60.7239L87.0015 60.6668C87.0826 61.5186 87.1138 62.3695 87.0959 63.2164L86.4979 63.204C86.4804 64.0344 86.4141 64.8608 86.3021 65.6791L86.894 65.7602C86.7784 66.6045 86.6155 67.4404 86.4054 68.264L85.8253 68.1159C85.6205 68.9187 85.3704 69.7095 85.0767 70.4846L85.6372 70.6964C85.336 71.4914 84.9899 72.2699 84.6011 73.0284L84.0687 72.7558C83.6915 73.4915 83.2724 74.2083 82.8139 74.9012L83.3124 75.2307C82.8444 75.938 82.3367 76.6219 81.7895 77.278L81.3304 76.8947C80.8021 77.5282 80.2365 78.1351 79.6357 78.7123L80.0499 79.1432C79.44 79.7291 78.7962 80.2864 78.1168 80.8085L77.7518 80.3324C77.0998 80.8335 76.4148 81.3031 75.6998 81.7371L76.0097 82.2492C75.2895 82.6863 74.5394 83.0893 73.76 83.4536L73.5072 82.9111C73.1336 83.0857 72.7531 83.2514 72.366 83.4078C71.9788 83.5641 71.59 83.7091 71.1999 83.8428L71.3938 84.4091C70.5799 84.6882 69.7604 84.9191 68.9385 85.1046L68.807 84.5206C67.991 84.7047 67.172 84.8425 66.3549 84.9347L66.4229 85.5307L66.422 85.5311C65.5705 85.6271 64.7202 85.6733 63.8746 85.6751L63.8742 85.077C63.0411 85.0789 62.2127 85.0349 61.3927 84.9459L61.3275 85.5409C60.4782 85.4487 59.6379 85.3092 58.81 85.1252L58.9408 84.5416C58.1297 84.3613 57.3305 84.1366 56.5481 83.869L56.3534 84.4353C55.547 84.1594 54.7573 83.8396 53.9884 83.4767L54.2456 82.9347C53.4961 82.5809 52.767 82.1855 52.0622 81.7501L51.7467 82.2598C51.0236 81.813 50.3259 81.3247 49.6564 80.7974L50.027 80.3276C49.3781 79.8166 48.7566 79.2679 48.1673 78.6826L47.7447 79.107C47.1438 78.5101 46.5753 77.876 46.0422 77.2069L46.511 76.8343C45.9989 76.1916 45.5208 75.5148 45.0803 74.8065L44.5717 75.1225C44.1265 74.4066 43.7179 73.6595 43.3508 72.8814L43.8935 72.6265C43.7178 72.2541 43.5509 71.8748 43.3948 71.4882C43.2387 71.1016 43.0953 70.7128 42.9632 70.3228L42.3953 70.5153C42.1193 69.7005 41.8944 68.8792 41.7177 68.0549L42.3034 67.93C42.1286 67.1144 42.0027 66.2954 41.9249 65.4773L41.3284 65.5338C41.2474 64.6822 41.2162 63.8311 41.2341 62.9843L41.8333 62.9972C41.8509 62.1668 41.9171 61.3404 42.0292 60.5221L41.4359 60.4404C41.5464 59.6336 41.6992 58.8342 41.8961 58.0461L41.9246 57.9367L42.5059 58.0853C42.7107 57.2825 42.9608 56.4917 43.2545 55.7166L42.6927 55.5043C42.994 54.7093 43.3401 53.9307 43.7289 53.1723L44.2626 53.4454C44.6397 52.7097 45.0588 51.9929 45.5173 51.3L45.0175 50.9699C45.4855 50.2626 45.9933 49.5787 46.5404 48.9226L47.0009 49.3065C47.5291 48.673 48.0948 48.0661 48.6955 47.4889L48.2801 47.0574C48.8899 46.4716 49.5338 45.9142 50.2132 45.3921L50.2145 45.3927L50.5794 45.8688C51.2315 45.3677 51.9164 44.8981 52.6315 44.4641L52.3202 43.9515C53.0404 43.5143 53.7906 43.1114 54.57 42.7471L54.824 43.2901C55.1976 43.1155 55.5781 42.9498 55.9652 42.7934C56.3524 42.6371 56.7412 42.4921 57.1313 42.3584L56.9361 41.7916C57.75 41.5125 58.5696 41.2816 59.3914 41.096L59.5243 41.6806C60.3402 41.4965 61.1592 41.3587 61.9763 41.2665L61.9083 40.6705L61.908 40.6696C62.7594 40.5735 63.6098 40.5275 64.4554 40.5256L64.457 41.1242C65.2901 41.1223 66.1186 41.1663 66.9386 41.2553L67.0024 40.6597C67.8517 40.7519 68.692 40.8915 69.52 41.0754L69.3904 41.6596C70.2015 41.8399 71.0008 42.0646 71.7831 42.3322L71.9765 41.7654C72.783 42.0412 73.5727 42.3611 74.3415 42.724L74.3424 42.7236L74.0856 43.2665C74.8351 43.6203 75.5643 44.0157 76.2691 44.4511L76.5833 43.9409Z" stroke="black" stroke-width="1.2" stroke-dasharray="2.4 2.4"/>
<circle cx="49.3752" cy="26.4742" r="3.4" transform="rotate(-21.9897 49.3752 26.4742)" stroke="black" stroke-width="1.2"/>
<path d="M48.7351 19.1835C48.5199 17.9563 47.8747 16.6335 46.4601 15.2492C40.2192 9.14168 29.3686 12.9841 18.3307 16.3629C9.50047 19.066 7.69097 27.8492 7.89001 31.9029C8.03547 38.4946 7.96094 47.8354 6.49913 32.4645C4.67188 13.251 31.4015 10.0063 40.7809 10.5325C50.1603 11.0588 51.1229 21.4546 50.9446 23.6836C50.8019 25.4667 48.1985 26.2304 47.61 26.1086C47.3495 25.4633 47.7354 24.5439 48.1393 23.4135" stroke="black" stroke-width="1.2"/>
<circle cx="7.80949" cy="35.71" r="3" transform="rotate(-21.9897 7.80949 35.71)" fill="black"/>
</svg>
