<svg width="91" height="101" viewBox="0 0 91 101" fill="none" xmlns="http://www.w3.org/2000/svg">
<path d="M42.5 6.59961C50.8587 6.59961 58.5242 8.10108 64.0781 10.5049C66.8561 11.7073 69.0787 13.1234 70.5977 14.666C72.1143 16.2064 72.9004 17.8394 72.9004 19.5C72.9004 21.1606 72.1143 22.7936 70.5977 24.334C69.0787 25.8766 66.8561 27.2927 64.0781 28.4951C58.5242 30.8989 50.8587 32.4004 42.5 32.4004C34.1413 32.4004 26.4758 30.8989 20.9219 28.4951C18.1439 27.2927 15.9213 25.8766 14.4023 24.334C12.8857 22.7936 12.0996 21.1606 12.0996 19.5C12.0996 17.8394 12.8857 16.2064 14.4023 14.666C15.9213 13.1234 18.1439 11.7073 20.9219 10.5049C26.4758 8.10108 34.1413 6.59961 42.5 6.59961Z" stroke="black" stroke-width="1.2"/>
<path d="M73 76.5V82.5C73 89.9558 59.3447 96 42.5 96C25.6553 96 12 89.9558 12 82.5V19.5" stroke="black" stroke-width="1.2"/>
<path d="M73 67.5V46.5" stroke="black" stroke-width="1.2"/>
<path d="M73 36V19.5" stroke="black" stroke-width="1.2"/>
<path d="M68.9799 45.023C72.4799 45.3563 78.9799 48.823 78.9799 58.023C78.9799 63.9006 76.5309 66.4178 73.9799 67.2954M68.9799 45.023C67.1465 45.6896 63.4799 47.023 62.4799 43.523C61.4798 40.023 62.0727 38.1587 63.9799 37.523C66.9799 36.523 69.9799 36.023 69.9799 36.023C75.3132 35.6896 87.4799 38.823 87.4799 56.023C87.4799 73.223 72.3132 78.3563 66.4799 78.023C64.3132 78.523 63.3799 76.923 62.9799 72.523C62.5799 68.123 67.4799 67.3563 69.9799 67.523C71.0633 67.7637 72.5379 67.7915 73.9799 67.2954M68.9799 45.023L64.9799 44.523M73.9799 67.2954L67.9799 69.523" stroke="black" stroke-width="1.2"/>
<path d="M15.0787 56.7804L17.1964 53.0678C17.8931 51.8464 19.7399 52.1915 19.9487 53.5819C20.1574 54.9724 22.0043 55.3174 22.7009 54.0961C23.3976 52.8748 25.2444 53.2198 25.4532 54.6103C25.6619 56.0007 27.5088 56.3458 28.2054 55.1244C28.9021 53.9031 30.7489 54.2481 30.9577 55.6386L31.0342 56.1484C31.2178 57.3711 32.8419 57.6746 33.4545 56.6005L33.7871 56.0175C34.3528 55.0258 35.8659 55.4166 35.8806 56.5583C35.8952 57.6999 37.4084 58.0908 37.9741 57.099L38.3066 56.516C38.9192 55.442 40.5434 55.7454 40.7269 56.9682L41.438 61.7048" stroke="black"/>
</svg>
