<svg width="112" height="110" viewBox="0 0 112 110" fill="none" xmlns="http://www.w3.org/2000/svg">
<path d="M65.3248 42.2805H9C6.79086 42.2805 5 44.0714 5 46.2805V101.5C5 103.709 6.79086 105.5 9 105.5H107C109.209 105.5 111 103.709 111 101.5V28.5C111 26.2909 109.209 24.5 107 24.5H73.3248C71.1156 24.5 69.3248 26.2909 69.3248 28.5V38.2805C69.3248 40.4896 67.5339 42.2805 65.3248 42.2805Z" stroke="black" stroke-width="1.2"/>
<path d="M13 41.5V4.5H103V24.4231" stroke="black" stroke-width="1.2"/>
<path d="M20 10.5H60V14.5H20V10.5Z" fill="black"/>
<path d="M20 18.5H47V22.5H20V18.5Z" fill="black"/>
</svg>
