<svg width="113" height="80" viewBox="0 0 113 80" fill="none" xmlns="http://www.w3.org/2000/svg">
<rect x="89.497" y="10.1961" width="18.3249" height="74.1104" transform="rotate(60.87 89.497 10.1961)" stroke="black" stroke-width="1.2"/>
<path d="M77.3668 16.8012L86.4188 33.0444" stroke="black" stroke-width="1.2" stroke-dasharray="2.4 2.4"/>
<path d="M90.6806 12.0426L101.465 6.56492L107.575 17.5291L97.4696 24.225M95.3525 28.0658L98.2944 33.3449C91.8747 38.6964 77.7239 48.0015 67.0263 50.77C65.4422 47.9274 67.4789 51.5821 65.4422 47.9274C71.3536 45.1653 85.4665 36.8747 88.3159 33.5838C88.0431 32.1392 88.0431 32.1392 88.0431 32.1392" stroke="black" stroke-width="1.2"/>
<path d="M33.4092 62.3469C26.0055 65.4222 19.3205 67.6637 11.1409 67.672L8.31906 62.6084C12.7936 55.5828 18.1696 51.0246 24.559 46.4658L33.4092 62.3469Z" stroke="black" stroke-width="1.2"/>
<path d="M6.08913 65.57L8.70538 63.5798L10.7421 67.2346L7.67323 68.4126L6.08913 65.57Z" stroke="black"/>
<path d="M35.3544 55.1041L35.4825 51.0465C35.5399 49.2272 37.5316 48.1398 39.093 49.0752C40.6545 50.0107 42.6462 48.9232 42.7036 47.1039C42.761 45.2846 44.7527 44.1972 46.3142 45.1327C47.8756 46.0681 49.8673 44.9807 49.9247 43.1614C49.9821 41.3421 51.9738 40.2547 53.5353 41.1901L53.9684 41.4496C55.3356 42.2687 57.0796 41.3166 57.1299 39.7235L57.1573 38.8554C57.203 37.408 58.9279 36.6835 59.9934 37.6642C61.0589 38.6449 62.7838 37.9204 62.8295 36.473L62.8569 35.6048C62.9071 34.0118 64.6511 33.0597 66.0183 33.8788L66.8846 34.3977C68.2518 35.2168 69.9958 34.2647 70.0461 32.6716L70.0735 31.8035C70.1192 30.3561 71.8441 29.6316 72.9096 30.6123C73.9751 31.5929 75.7 30.8685 75.7457 29.4211L75.8852 25" stroke="black"/>
</svg>
