<svg width="132" height="113" viewBox="0 0 132 113" fill="none" xmlns="http://www.w3.org/2000/svg">
<mask id="path-1-inside-1_63_174" fill="white">
<path d="M25.6184 41.0979C25.6184 35.575 30.0956 31.0979 35.6184 31.0979H99.8552C105.378 31.0979 109.855 35.575 109.855 41.0979V65.9127H25.6184V41.0979Z"/>
</mask>
<path d="M24.4184 41.0979C24.4184 34.9123 29.4328 29.8979 35.6184 29.8979H99.8552C106.041 29.8979 111.055 34.9123 111.055 41.0979L108.655 41.0979C108.655 36.2377 104.715 32.2979 99.8552 32.2979H35.6184C30.7583 32.2979 26.8184 36.2377 26.8184 41.0979L24.4184 41.0979ZM109.855 65.9127H25.6184H109.855ZM24.4184 65.9127V41.0979C24.4184 34.9123 29.4328 29.8979 35.6184 29.8979L35.6184 32.2979C30.7583 32.2979 26.8184 36.2377 26.8184 41.0979V65.9127H24.4184ZM99.8552 29.8979C106.041 29.8979 111.055 34.9123 111.055 41.0979V65.9127H108.655V41.0979C108.655 36.2377 104.715 32.2979 99.8552 32.2979L99.8552 29.8979Z" fill="black" mask="url(#path-1-inside-1_63_174)"/>
<path d="M5.64474 20.5V57.7617C5.66308 64.0707 7.08825 65.6848 11.5888 65.9069H33" stroke="black" stroke-width="1.2"/>
<path d="M99.8684 65.9069H120.959C126.245 66.019 128.042 64.5454 128.092 57.7617V22" stroke="black" stroke-width="1.2"/>
<path d="M36.4737 52.8519H33.8684V45.0185H99.8684V52.8519H97.2631" stroke="black" stroke-width="1.2"/>
<rect x="37.0737" y="49.1" width="59.5895" height="44.0593" stroke="black" stroke-width="1.2"/>
<path d="M43.4211 56.3333L44.7237 55.0278C45.4426 54.3072 46.61 54.3072 47.3289 55.0278C48.0479 55.7483 49.2153 55.7483 49.9342 55.0278C50.6532 54.3072 51.8205 54.3072 52.5395 55.0278C53.2584 55.7483 54.4258 55.7483 55.1447 55.0278C55.8637 54.3072 57.031 54.3072 57.75 55.0278L57.9214 55.1996C58.5458 55.8253 59.5595 55.8253 60.1838 55.1996L60.5937 54.7888C61.1302 54.2511 62.0308 54.3696 62.41 55.0278C62.7891 55.6859 63.6898 55.8044 64.2262 55.2668L64.6361 54.856C65.2604 54.2302 66.2742 54.2302 66.8985 54.856L67.2414 55.1996C67.8657 55.8253 68.8794 55.8253 69.5038 55.1996L69.9136 54.7888C70.4501 54.2511 71.3508 54.3696 71.7299 55.0278C72.109 55.6859 73.0097 55.8044 73.5462 55.2668L75.0872 53.7222" stroke="black"/>
<path d="M43.4211 65.037L44.7237 63.7315C45.4426 63.0109 46.61 63.0109 47.3289 63.7315C48.0479 64.4521 49.2153 64.4521 49.9342 63.7315C50.6532 63.0109 51.8205 63.0109 52.5395 63.7315C53.2584 64.4521 54.4258 64.4521 55.1447 63.7315C55.8637 63.0109 57.031 63.0109 57.75 63.7315L57.9214 63.9033C58.5458 64.529 59.5595 64.529 60.1838 63.9033C60.9269 63.1586 62.1745 63.3227 62.6996 64.2343L63.162 65.037" stroke="black"/>
<mask id="path-9-inside-2_63_174" fill="white">
<path d="M5 6H129V20C129 24.4183 125.418 28 121 28H13C8.58172 28 5 24.4183 5 20V6Z"/>
</mask>
<path d="M5 6H129H5ZM130.2 20C130.2 25.081 126.081 29.2 121 29.2H13C7.91898 29.2 3.8 25.081 3.8 20L6.2 20C6.2 23.7555 9.24446 26.8 13 26.8H121C124.756 26.8 127.8 23.7555 127.8 20L130.2 20ZM13 29.2C7.91898 29.2 3.8 25.081 3.8 20V6H6.2V20C6.2 23.7555 9.24446 26.8 13 26.8L13 29.2ZM130.2 6V20C130.2 25.081 126.081 29.2 121 29.2L121 26.8C124.756 26.8 127.8 23.7555 127.8 20V6H130.2Z" fill="black" mask="url(#path-9-inside-2_63_174)"/>
<line x1="26.4" y1="27" x2="26.4" y2="6" stroke="black" stroke-width="1.2" stroke-dasharray="2.4 2.4"/>
<rect x="12.6" y="16.6" width="7.8" height="3.8" rx="1.4" stroke="black" stroke-width="1.2"/>
</svg>
