<svg width="130" height="74" viewBox="0 0 130 74" fill="none" xmlns="http://www.w3.org/2000/svg">
<rect x="2.6" y="3.6" width="124.8" height="66.8" stroke="black" stroke-width="1.2"/>
<mask id="path-2-inside-1_41_687" fill="white">
<path d="M110.047 10C110.552 15.6064 115.262 20 121 20V53C114.925 53 110 57.9249 110 64H20C20 57.9249 15.0751 53 9 53V20C14.738 20 19.4478 15.6064 19.9531 10H110.047Z"/>
</mask>
<path d="M110.047 10L110.644 9.94614L110.595 9.4H110.047V10ZM121 20H121.6V19.4H121V20ZM121 53V53.6H121.6V53H121ZM110 64V64.6H110.6V64H110ZM20 64H19.4V64.6H20V64ZM9 53H8.4V53.6H9V53ZM9 20V19.4H8.4V20H9ZM19.9531 10V9.4H19.4048L19.3555 9.94614L19.9531 10ZM110.047 10V9.4H108.861V10V10.6H110.047V10ZM106.491 10V9.4H104.12V10V10.6H106.491V10ZM101.749 10V9.4H99.3779V10V10.6H101.749V10ZM97.007 10V9.4H94.6361V10V10.6H97.007V10ZM92.2652 10V9.4H89.8943V10V10.6H92.2652V10ZM87.5234 10V9.4H85.1526V10V10.6H87.5234V10ZM82.7817 10V9.4H80.4108V10V10.6H82.7817V10ZM78.0399 10V9.4H75.669V10V10.6H78.0399V10ZM73.2981 10V9.4H70.9272V10V10.6H73.2981V10ZM68.5563 10V9.4H66.1854V10V10.6H68.5563V10ZM63.8146 10V9.4H61.4437V10V10.6H63.8146V10ZM59.0728 10V9.4H56.7019V10V10.6H59.0728V10ZM54.331 10V9.4H51.9601V10V10.6H54.331V10ZM49.5892 10V9.4H47.2183V10V10.6H49.5892V10ZM44.8475 10V9.4H42.4766V10V10.6H44.8475V10ZM40.1057 10V9.4H37.7348V10V10.6H40.1057V10ZM35.3639 10V9.4H32.993V10V10.6H35.3639V10ZM30.6221 10V9.4H28.2512V10V10.6H30.6221V10ZM25.8804 10V9.4H23.5095V10V10.6H25.8804V10ZM21.1386 10V9.4H19.9531V10V10.6H21.1386V10ZM19.9531 10L19.3555 9.94614C19.3167 10.3768 19.2517 10.7998 19.1621 11.2135L19.7484 11.3406L20.3348 11.4676C20.4349 11.0059 20.5074 10.534 20.5507 10.0539L19.9531 10ZM18.8524 13.8936L18.3152 13.6264C17.9322 14.3964 17.4564 15.1125 16.9024 15.7598L17.3583 16.1499L17.8141 16.5401C18.4316 15.8185 18.9623 15.02 19.3897 14.1609L18.8524 13.8936ZM15.3604 17.9752L15.0129 17.486C14.3201 17.9781 13.5646 18.3872 12.7609 18.6992L12.978 19.2585L13.1951 19.8179C14.0923 19.4696 14.9352 19.0131 15.7078 18.4644L15.3604 17.9752ZM10.3537 19.9175L10.2806 19.322C9.86123 19.3735 9.43386 19.4 9 19.4V20V20.6C9.48284 20.6 9.95903 20.5705 10.4268 20.513L10.3537 19.9175ZM9 20H8.4V21.1786H9H9.6V20H9ZM9 23.5357H8.4V25.8929H9H9.6V23.5357H9ZM9 28.25H8.4V30.6071H9H9.6V28.25H9ZM9 32.9643H8.4V35.3214H9H9.6V32.9643H9ZM9 37.6786H8.4V40.0357H9H9.6V37.6786H9ZM9 42.3929H8.4V44.75H9H9.6V42.3929H9ZM9 47.1071H8.4V49.4643H9H9.6V47.1071H9ZM9 51.8214H8.4V53H9H9.6V51.8214H9ZM9 53V53.6C9.3445 53.6 9.68491 53.6167 10.0205 53.6494L10.0786 53.0522L10.1367 52.455C9.76257 52.4186 9.38337 52.4 9 52.4V53ZM12.1942 53.4709L12.0202 54.0452C12.6776 54.2443 13.3076 54.5069 13.903 54.8258L14.1863 54.2969L14.4696 53.768C13.8053 53.4122 13.1021 53.1191 12.3682 52.8967L12.1942 53.4709ZM15.9784 55.4966L15.5975 55.9602C16.124 56.3927 16.6073 56.876 17.0398 57.4025L17.5034 57.0216L17.967 56.6407C17.4849 56.0538 16.9462 55.5151 16.3593 55.033L15.9784 55.4966ZM18.7031 58.8137L18.1742 59.097C18.4931 59.6924 18.7557 60.3224 18.9548 60.9798L19.5291 60.8058L20.1033 60.6318C19.8809 59.8979 19.5878 59.1947 19.232 58.5304L18.7031 58.8137ZM19.9478 62.9214L19.3506 62.9795C19.3833 63.3151 19.4 63.6555 19.4 64H20H20.6C20.6 63.6166 20.5814 63.2374 20.545 62.8633L19.9478 62.9214ZM20 64V64.6H21.1842V64V63.4H20V64ZM23.5526 64V64.6H25.9211V64V63.4H23.5526V64ZM28.2895 64V64.6H30.6579V64V63.4H28.2895V64ZM33.0263 64V64.6H35.3947V64V63.4H33.0263V64ZM37.7632 64V64.6H40.1316V64V63.4H37.7632V64ZM42.5 64V64.6H44.8684V64V63.4H42.5V64ZM47.2368 64V64.6H49.6053V64V63.4H47.2368V64ZM51.9737 64V64.6H54.3421V64V63.4H51.9737V64ZM56.7105 64V64.6H59.0789V64V63.4H56.7105V64ZM61.4474 64V64.6H63.8158V64V63.4H61.4474V64ZM66.1842 64V64.6H68.5526V64V63.4H66.1842V64ZM70.921 64V64.6H73.2895V64V63.4H70.921V64ZM75.6579 64V64.6H78.0263V64V63.4H75.6579V64ZM80.3947 64V64.6H82.7631V64V63.4H80.3947V64ZM85.1316 64V64.6H87.5V64V63.4H85.1316V64ZM89.8684 64V64.6H92.2368V64V63.4H89.8684V64ZM94.6053 64V64.6H96.9737V64V63.4H94.6053V64ZM99.3421 64V64.6H101.711V64V63.4H99.3421V64ZM104.079 64V64.6H106.447V64V63.4H104.079V64ZM108.816 64V64.6H110V64V63.4H108.816V64ZM110 64H110.6C110.6 63.6555 110.617 63.3151 110.649 62.9795L110.052 62.9214L109.455 62.8633C109.419 63.2374 109.4 63.6166 109.4 64H110ZM110.471 60.8058L111.045 60.9798C111.244 60.3224 111.507 59.6924 111.826 59.097L111.297 58.8137L110.768 58.5304C110.412 59.1947 110.119 59.8979 109.897 60.6318L110.471 60.8058ZM112.497 57.0216L112.96 57.4025C113.393 56.876 113.876 56.3927 114.402 55.9602L114.022 55.4966L113.641 55.033C113.054 55.5151 112.515 56.0538 112.033 56.6407L112.497 57.0216ZM115.814 54.2969L116.097 54.8258C116.692 54.5069 117.322 54.2443 117.98 54.0452L117.806 53.4709L117.632 52.8967C116.898 53.1191 116.195 53.4122 115.53 53.768L115.814 54.2969ZM119.921 53.0522L119.98 53.6494C120.315 53.6167 120.656 53.6 121 53.6V53V52.4C120.617 52.4 120.237 52.4186 119.863 52.455L119.921 53.0522ZM121 53H121.6V51.8214H121H120.4V53H121ZM121 49.4643H121.6V47.1071H121H120.4V49.4643H121ZM121 44.75H121.6V42.3929H121H120.4V44.75H121ZM121 40.0357H121.6V37.6786H121H120.4V40.0357H121ZM121 35.3214H121.6V32.9643H121H120.4V35.3214H121ZM121 30.6071H121.6V28.25H121H120.4V30.6071H121ZM121 25.8929H121.6V23.5357H121H120.4V25.8929H121ZM121 21.1786H121.6V20H121H120.4V21.1786H121ZM121 20V19.4C120.566 19.4 120.139 19.3735 119.719 19.322L119.646 19.9175L119.573 20.513C120.041 20.5705 120.517 20.6 121 20.6V20ZM117.022 19.2585L117.239 18.6992C116.435 18.3872 115.68 17.9781 114.987 17.486L114.64 17.9752L114.292 18.4644C115.065 19.0131 115.908 19.4696 116.805 19.8179L117.022 19.2585ZM112.642 16.1499L113.098 15.7598C112.544 15.1125 112.068 14.3964 111.685 13.6264L111.148 13.8936L110.61 14.1609C111.038 15.02 111.568 15.8185 112.186 16.5401L112.642 16.1499ZM110.252 11.3406L110.838 11.2135C110.748 10.7998 110.683 10.3768 110.644 9.94614L110.047 10L109.449 10.0539C109.493 10.534 109.565 11.0059 109.665 11.4676L110.252 11.3406ZM110.047 10L111.242 9.89228L111.144 8.8H110.047V10ZM121 20H122.2V18.8H121V20ZM121 53V54.2H122.2V53H121ZM110 64V65.2H111.2V64H110ZM20 64H18.8V65.2H20V64ZM9 53H7.8V54.2H9V53ZM9 20V18.8H7.8V20H9ZM19.9531 10V8.8H18.8564L18.758 9.89228L19.9531 10ZM110.047 10V8.8H108.861V10V11.2H110.047V10ZM106.491 10V8.8H104.12V10V11.2H106.491V10ZM101.749 10V8.8H99.3779V10V11.2H101.749V10ZM97.007 10V8.8H94.6361V10V11.2H97.007V10ZM92.2652 10V8.8H89.8943V10V11.2H92.2652V10ZM87.5234 10V8.8H85.1526V10V11.2H87.5234V10ZM82.7817 10V8.8H80.4108V10V11.2H82.7817V10ZM78.0399 10V8.8H75.669V10V11.2H78.0399V10ZM73.2981 10V8.8H70.9272V10V11.2H73.2981V10ZM68.5563 10V8.8H66.1854V10V11.2H68.5563V10ZM63.8146 10V8.8H61.4437V10V11.2H63.8146V10ZM59.0728 10V8.8H56.7019V10V11.2H59.0728V10ZM54.331 10V8.8H51.9601V10V11.2H54.331V10ZM49.5892 10V8.8H47.2183V10V11.2H49.5892V10ZM44.8475 10V8.8H42.4766V10V11.2H44.8475V10ZM40.1057 10V8.8H37.7348V10V11.2H40.1057V10ZM35.3639 10V8.8H32.993V10V11.2H35.3639V10ZM30.6221 10V8.8H28.2512V10V11.2H30.6221V10ZM25.8804 10V8.8H23.5095V10V11.2H25.8804V10ZM21.1386 10V8.8H19.9531V10V11.2H21.1386V10ZM19.9531 10L18.758 9.89228C18.7214 10.2983 18.6601 10.6968 18.5757 11.0865L19.7484 11.3406L20.9212 11.5947C21.0265 11.1089 21.1028 10.6126 21.1483 10.1077L19.9531 10ZM18.8524 13.8936L17.778 13.3592C17.4172 14.0846 16.9688 14.7594 16.4466 15.3696L17.3583 16.1499L18.2699 16.9302C18.9192 16.1715 19.4773 15.3319 19.9269 14.4281L18.8524 13.8936ZM15.3604 17.9752L14.6655 16.9968C14.0125 17.4606 13.3007 17.846 12.5438 18.1399L12.978 19.2585L13.4122 20.3772C14.3562 20.0108 15.2428 19.5306 16.0552 18.9536L15.3604 17.9752ZM10.3537 19.9175L10.2076 18.7265C9.81234 18.775 9.40937 18.8 9 18.8V20V21.2C9.50733 21.2 10.0079 21.169 10.4999 21.1086L10.3537 19.9175ZM9 20H7.8V21.1786H9H10.2V20H9ZM9 23.5357H7.8V25.8929H9H10.2V23.5357H9ZM9 28.25H7.8V30.6071H9H10.2V28.25H9ZM9 32.9643H7.8V35.3214H9H10.2V32.9643H9ZM9 37.6786H7.8V40.0357H9H10.2V37.6786H9ZM9 42.3929H7.8V44.75H9H10.2V42.3929H9ZM9 47.1071H7.8V49.4643H9H10.2V47.1071H9ZM9 51.8214H7.8V53H9H10.2V51.8214H9ZM9 53V54.2C9.32506 54.2 9.64607 54.2158 9.96237 54.2466L10.0786 53.0522L10.1948 51.8579C9.8014 51.8196 9.40281 51.8 9 51.8V53ZM12.1942 53.4709L11.8463 54.6194C12.4654 54.807 13.0587 55.0543 13.6197 55.3547L14.1863 54.2969L14.7529 53.2391C14.0541 52.8648 13.3144 52.5565 12.5422 52.3225L12.1942 53.4709ZM15.9784 55.4966L15.2166 56.4237C15.7129 56.8315 16.1685 57.2871 16.5763 57.7834L17.5034 57.0216L18.4306 56.2598C17.9236 55.6427 17.3573 55.0764 16.7402 54.5694L15.9784 55.4966ZM18.7031 58.8137L17.6453 59.3803C17.9457 59.9413 18.193 60.5346 18.3806 61.1537L19.5291 60.8058L20.6775 60.4578C20.4435 59.6856 20.1352 58.9459 19.7609 58.2471L18.7031 58.8137ZM19.9478 62.9214L18.7534 63.0376C18.7842 63.3539 18.8 63.6749 18.8 64H20H21.2C21.2 63.5972 21.1804 63.1986 21.1421 62.8052L19.9478 62.9214ZM20 64V65.2H21.1842V64V62.8H20V64ZM23.5526 64V65.2H25.9211V64V62.8H23.5526V64ZM28.2895 64V65.2H30.6579V64V62.8H28.2895V64ZM33.0263 64V65.2H35.3947V64V62.8H33.0263V64ZM37.7632 64V65.2H40.1316V64V62.8H37.7632V64ZM42.5 64V65.2H44.8684V64V62.8H42.5V64ZM47.2368 64V65.2H49.6053V64V62.8H47.2368V64ZM51.9737 64V65.2H54.3421V64V62.8H51.9737V64ZM56.7105 64V65.2H59.0789V64V62.8H56.7105V64ZM61.4474 64V65.2H63.8158V64V62.8H61.4474V64ZM66.1842 64V65.2H68.5526V64V62.8H66.1842V64ZM70.921 64V65.2H73.2895V64V62.8H70.921V64ZM75.6579 64V65.2H78.0263V64V62.8H75.6579V64ZM80.3947 64V65.2H82.7631V64V62.8H80.3947V64ZM85.1316 64V65.2H87.5V64V62.8H85.1316V64ZM89.8684 64V65.2H92.2368V64V62.8H89.8684V64ZM94.6053 64V65.2H96.9737V64V62.8H94.6053V64ZM99.3421 64V65.2H101.711V64V62.8H99.3421V64ZM104.079 64V65.2H106.447V64V62.8H104.079V64ZM108.816 64V65.2H110V64V62.8H108.816V64ZM110 64H111.2C111.2 63.6749 111.216 63.3539 111.247 63.0376L110.052 62.9214L108.858 62.8052C108.82 63.1986 108.8 63.5972 108.8 64H110ZM110.471 60.8058L111.619 61.1537C111.807 60.5346 112.054 59.9413 112.355 59.3803L111.297 58.8137L110.239 58.2471C109.865 58.9459 109.556 59.6856 109.322 60.4578L110.471 60.8058ZM112.497 57.0216L113.424 57.7834C113.832 57.2871 114.287 56.8315 114.783 56.4237L114.022 55.4966L113.26 54.5694C112.643 55.0764 112.076 55.6427 111.569 56.2598L112.497 57.0216ZM115.814 54.2969L116.38 55.3547C116.941 55.0543 117.535 54.807 118.154 54.6194L117.806 53.4709L117.458 52.3225C116.686 52.5565 115.946 52.8648 115.247 53.2391L115.814 54.2969ZM119.921 53.0522L120.038 54.2466C120.354 54.2158 120.675 54.2 121 54.2V53V51.8C120.597 51.8 120.199 51.8196 119.805 51.8579L119.921 53.0522ZM121 53H122.2V51.8214H121H119.8V53H121ZM121 49.4643H122.2V47.1071H121H119.8V49.4643H121ZM121 44.75H122.2V42.3929H121H119.8V44.75H121ZM121 40.0357H122.2V37.6786H121H119.8V40.0357H121ZM121 35.3214H122.2V32.9643H121H119.8V35.3214H121ZM121 30.6071H122.2V28.25H121H119.8V30.6071H121ZM121 25.8929H122.2V23.5357H121H119.8V25.8929H121ZM121 21.1786H122.2V20H121H119.8V21.1786H121ZM121 20V18.8C120.591 18.8 120.188 18.775 119.792 18.7265L119.646 19.9175L119.5 21.1086C119.992 21.169 120.493 21.2 121 21.2V20ZM117.022 19.2585L117.456 18.1399C116.699 17.846 115.987 17.4606 115.334 16.9968L114.64 17.9752L113.945 18.9536C114.757 19.5306 115.644 20.0108 116.588 20.3772L117.022 19.2585ZM112.642 16.1499L113.553 15.3696C113.031 14.7594 112.583 14.0846 112.222 13.3592L111.148 13.8936L110.073 14.4281C110.523 15.3319 111.081 16.1715 111.73 16.9302L112.642 16.1499ZM110.252 11.3406L111.424 11.0865C111.34 10.6968 111.279 10.2983 111.242 9.89228L110.047 10L108.852 10.1077C108.897 10.6126 108.974 11.1089 109.079 11.5947L110.252 11.3406Z" fill="black" mask="url(#path-2-inside-1_41_687)"/>
<circle cx="120" cy="10" r="3.4" stroke="black" stroke-width="1.2"/>
<circle cx="120" cy="62" r="3.4" stroke="black" stroke-width="1.2"/>
<circle cx="11" cy="62" r="3.4" stroke="black" stroke-width="1.2"/>
<circle cx="11" cy="11" r="3.4" stroke="black" stroke-width="1.2"/>
<path d="M33 43L35.6739 36.5C36.6564 34.1116 40.0391 34.1116 41.0216 36.5C42.0041 38.8884 45.3868 38.8884 46.3693 36.5C47.3518 34.1116 50.7345 34.1116 51.717 36.5C52.6996 38.8884 56.0822 38.8884 57.0648 36.5C58.0473 34.1116 61.43 34.1116 62.4125 36.5L62.7374 37.2898C63.6005 39.388 66.5722 39.388 67.4353 37.2898L67.8925 36.1785C68.6879 34.2449 71.4947 34.4658 71.9778 36.5C72.461 38.5342 75.2678 38.7551 76.0632 36.8215L76.5203 35.7102C77.3835 33.612 80.3552 33.612 81.2183 35.7102L81.8681 37.2898C82.7312 39.388 85.7029 39.388 86.566 37.2898L87.0232 36.1785C87.8186 34.2449 90.6254 34.4658 91.1085 36.5C91.5916 38.5342 94.3985 38.7551 95.1939 36.8215L98 30" stroke="black"/>
</svg>
