<svg width="122" height="91" viewBox="0 0 122 91" fill="none" xmlns="http://www.w3.org/2000/svg">
<path d="M53 51V76H5V11H53V34.5" stroke="black" stroke-width="1.2"/>
<path d="M10 20L11.0695 18.5C11.5934 17.7654 12.6848 17.7654 13.2086 18.5C13.7324 19.2346 14.8239 19.2346 15.3477 18.5C15.8715 17.7654 16.963 17.7654 17.4868 18.5C18.0106 19.2346 19.1021 19.2346 19.6259 18.5C20.1497 17.7654 21.2412 17.7654 21.765 18.5L21.9004 18.6899C22.3579 19.3315 23.3112 19.3315 23.7687 18.6899L24.0319 18.3208C24.4413 17.7466 25.3227 17.8479 25.5911 18.5C25.8596 19.1521 26.741 19.2534 27.1504 18.6792L27.4136 18.3101C27.8711 17.6685 28.8244 17.6685 29.2819 18.3101L29.5527 18.6899C30.0102 19.3315 30.9635 19.3315 31.421 18.6899L31.6842 18.3208C32.0936 17.7466 32.975 17.8479 33.2434 18.5C33.5119 19.1521 34.3933 19.2534 34.8027 18.6792L36 17" stroke="black" stroke-width="1.2"/>
<path d="M44.1807 56.373L44.3125 56.5723L44.5449 56.626L48.4814 57.5371L45.8906 60.4199L45.7188 60.6113L45.7383 60.8672L46.0312 64.6689L42.2139 63.2148L42 63.1328L41.7861 63.2148L37.9678 64.6689L38.2617 60.8672L38.2812 60.6113L38.1094 60.4199L35.5176 57.5371L39.4551 56.626L39.6875 56.5723L39.8193 56.373L42 53.085L44.1807 56.373Z" stroke="black" stroke-width="1.2"/>
<path d="M65 43L55 37.2265L55 48.7735L65 43ZM44 43L44 44L56 44L56 43L56 42L44 42L44 43Z" fill="black"/>
<rect x="72.6" y="16.6" width="42.8" height="33.8" stroke="black" stroke-width="1.2"/>
<path d="M76.4932 64L78.8377 60.4667L76.7488 57.3333H78.1488L78.7932 58.3556C78.934 58.5704 79.071 58.7963 79.2043 59.0333C79.3451 59.263 79.4673 59.5 79.571 59.7444C79.6821 59.5 79.8043 59.263 79.9377 59.0333C80.0784 58.8037 80.2192 58.5778 80.3599 58.3556L80.9932 57.3333H82.371L80.2821 60.4667L82.6266 64H81.2043L80.2932 62.5444C80.1599 62.3296 80.0266 62.1148 79.8932 61.9C79.7599 61.6778 79.6414 61.4481 79.5377 61.2111C79.434 61.4481 79.3155 61.6778 79.1821 61.9C79.0488 62.1148 78.9155 62.3296 78.7821 62.5444L77.871 64H76.4932ZM84.3984 64.1333C84.154 64.1333 83.9466 64.0519 83.7762 63.8889C83.6133 63.7185 83.5318 63.5111 83.5318 63.2667C83.5318 63.0222 83.6133 62.8185 83.7762 62.6556C83.9466 62.4852 84.154 62.4 84.3984 62.4C84.6503 62.4 84.8577 62.4852 85.0207 62.6556C85.1836 62.8185 85.2651 63.0222 85.2651 63.2667C85.2651 63.5111 85.1836 63.7185 85.0207 63.8889C84.8577 64.0519 84.6503 64.1333 84.3984 64.1333ZM86.9651 67.3333V57.3333H88.0762V58.2111C88.3799 57.9074 88.7318 57.6704 89.1318 57.5C89.5318 57.3296 89.9614 57.2444 90.4207 57.2444C91.0355 57.2444 91.591 57.4 92.0873 57.7111C92.591 58.0148 92.991 58.4259 93.2873 58.9444C93.591 59.463 93.7429 60.037 93.7429 60.6667C93.7429 61.2963 93.591 61.8704 93.2873 62.3889C92.991 62.9074 92.591 63.3222 92.0873 63.6333C91.591 63.937 91.0355 64.0889 90.4207 64.0889C89.9836 64.0889 89.5725 64.0111 89.1873 63.8556C88.8021 63.7 88.4614 63.4852 88.1651 63.2111V67.3333H86.9651ZM90.2651 63C90.6873 63 91.0688 62.8963 91.4095 62.6889C91.7577 62.4741 92.0318 62.1926 92.2318 61.8444C92.4392 61.4889 92.5429 61.0963 92.5429 60.6667C92.5429 60.237 92.4392 59.8481 92.2318 59.5C92.0318 59.1444 91.7577 58.863 91.4095 58.6556C91.0688 58.4407 90.6873 58.3333 90.2651 58.3333C89.8429 58.3333 89.4577 58.4407 89.1095 58.6556C88.7688 58.863 88.4947 59.1444 88.2873 59.5C88.0873 59.8481 87.9873 60.237 87.9873 60.6667C87.9873 61.0963 88.0873 61.4889 88.2873 61.8444C88.4947 62.1926 88.7688 62.4741 89.1095 62.6889C89.4577 62.8963 89.8429 63 90.2651 63ZM95.4026 64V57.3333H96.5137V58.4111C96.7582 58.0185 97.073 57.7185 97.4582 57.5111C97.8508 57.3037 98.273 57.2 98.7248 57.2C99.1989 57.2 99.6359 57.3185 100.036 57.5556C100.443 57.7852 100.773 58.1222 101.025 58.5667C101.277 59.0037 101.403 59.537 101.403 60.1667V64H100.203V60.3333C100.203 59.8074 100.043 59.3444 99.7248 58.9444C99.4137 58.537 98.973 58.3333 98.4026 58.3333C97.9359 58.3333 97.5174 58.5037 97.147 58.8444C96.7841 59.1778 96.6026 59.663 96.6026 60.3V64H95.4026ZM106.103 67.4667C105.591 67.4667 105.125 67.3926 104.703 67.2444C104.288 67.0963 103.917 66.8926 103.591 66.6333L103.925 65.2778C104.147 65.5963 104.443 65.8556 104.814 66.0556C105.184 66.2556 105.61 66.3556 106.091 66.3556C106.84 66.3556 107.443 66.1296 107.903 65.6778C108.369 65.2259 108.603 64.6444 108.603 63.9333V63.1222C108.306 63.4185 107.954 63.6556 107.547 63.8333C107.147 64.0037 106.717 64.0889 106.258 64.0889C105.651 64.0889 105.095 63.937 104.591 63.6333C104.088 63.3222 103.684 62.9074 103.38 62.3889C103.084 61.8704 102.936 61.2963 102.936 60.6667C102.936 60.037 103.084 59.463 103.38 58.9444C103.684 58.4259 104.088 58.0148 104.591 57.7111C105.095 57.4 105.651 57.2444 106.258 57.2444C106.717 57.2444 107.147 57.3296 107.547 57.5C107.954 57.6704 108.306 57.9074 108.603 58.2111V57.3333H109.714V64C109.714 64.7259 109.543 65.3481 109.203 65.8667C108.869 66.3852 108.429 66.7815 107.88 67.0556C107.332 67.3296 106.74 67.4667 106.103 67.4667ZM106.414 63C106.836 63 107.217 62.8963 107.558 62.6889C107.906 62.4741 108.18 62.1926 108.38 61.8444C108.588 61.4889 108.691 61.0963 108.691 60.6667C108.691 60.237 108.588 59.8481 108.38 59.5C108.18 59.1444 107.906 58.863 107.558 58.6556C107.217 58.4407 106.836 58.3333 106.414 58.3333C105.991 58.3333 105.606 58.4407 105.258 58.6556C104.917 58.863 104.643 59.1444 104.436 59.5C104.236 59.8481 104.136 60.237 104.136 60.6667C104.136 61.0963 104.236 61.4889 104.436 61.8444C104.643 62.1926 104.917 62.4741 105.258 62.6889C105.606 62.8963 105.991 63 106.414 63Z" fill="black"/>
<rect x="75.6" y="19.6" width="36.8" height="24.8" stroke="black" stroke-width="1.2" stroke-dasharray="2.4 2.4"/>
<path d="M97.6211 40.4004H82.3789L90 27.1992L97.6211 40.4004Z" stroke="black" stroke-width="1.2"/>
<circle cx="102.5" cy="28.5" r="3.9" stroke="black" stroke-width="1.2"/>
</svg>
