<svg width="123" height="121" viewBox="0 0 123 121" fill="none" xmlns="http://www.w3.org/2000/svg">
<path d="M94 26L32 10.5L9.5 98L19.5 101M94 26L69 117M94 26V37M94 26L111 95L107 96.5M69 117L59 113.321L62 103L26.5 91.3165M69 117L74.5 114.321L94 37M19.5 101L22.5 90L26.5 91.3165M19.5 101L25 99L26.5 91.3165M107 96.5L96.5 93.0217L95.5 86.5217L82.525 82.5M107 96.5L94 37M19.5 81.5L35.5 17.5L86.5 31L69 98L19.5 81.5Z" stroke="black"/>
<path d="M38.6241 33.7618L41.2355 30.8313C42.2694 29.671 44.1877 30.2472 44.4111 31.7852C44.6345 33.3231 46.5528 33.8993 47.5867 32.739C48.6206 31.5787 50.5389 32.155 50.7623 33.6929C50.9857 35.2309 52.904 35.8071 53.9379 34.6468C54.9718 33.4865 56.8901 34.0627 57.1135 35.6007L57.1825 36.0759C57.3786 37.4257 59.0622 37.9315 59.9696 36.9131L60.4493 36.3748C61.2828 35.4394 62.8299 36.0545 62.7936 37.3069C62.7573 38.5593 64.3044 39.1744 65.1379 38.239L65.6176 37.7007C66.525 36.6823 68.2086 37.188 68.4047 38.5379L68.5427 39.4883C68.7388 40.8381 70.4224 41.3438 71.3298 40.3255L71.8095 39.7872C72.6431 38.8518 74.1902 39.4669 74.1538 40.7193C74.1175 41.9717 75.6646 42.5868 76.4982 41.6514L79.2697 38.541" stroke="black"/>
<path d="M33.5996 49.4702L36.211 46.5397C37.2449 45.3794 39.1632 45.9556 39.3866 47.4936C39.61 49.0315 41.5283 49.6077 42.5622 48.4474C43.5961 47.2872 45.5144 47.8634 45.7378 49.4013C45.9612 50.9393 47.8795 51.5155 48.9134 50.3552C49.9473 49.1949 51.8656 49.7711 52.089 51.3091L52.158 51.7843C52.3541 53.1341 54.0377 53.6399 54.9451 52.6215L55.4248 52.0832C56.2583 51.1478 57.8054 51.7629 57.7691 53.0153C57.7328 54.2677 59.2799 54.8828 60.1134 53.9474L60.5931 53.4091C61.5005 52.3907 63.1841 52.8965 63.3802 54.2463L63.5182 55.1967C63.7143 56.5465 65.3979 57.0522 66.3053 56.0339L66.785 55.4956C67.6185 54.5602 69.1657 55.1753 69.1293 56.4277C69.093 57.6801 70.6401 58.2952 71.4736 57.3598L74.2452 54.2494" stroke="black"/>
</svg>
