<svg width="111" height="110" viewBox="0 0 111 110" fill="none" xmlns="http://www.w3.org/2000/svg">
<path d="M90 17L28 1.5L5.5 89L15.5 92M90 17L65 108M90 17V28M90 17L107 86L103 87.5M65 108L55 104.321L58 94L22.5 82.3165M65 108L70.5 105.321L90 28M15.5 92L18.5 81L22.5 82.3165M15.5 92L21 90L22.5 82.3165M103 87.5L92.5 84.0217L91.5 77.5217L78.525 73.5M103 87.5L90 28M15.5 72.5L31.5 8.5L82.5 22L65 89L15.5 72.5Z" stroke="black"/>
<path d="M34.6241 24.7618L37.2355 21.8313C38.2694 20.671 40.1877 21.2472 40.4111 22.7852C40.6345 24.3231 42.5528 24.8993 43.5867 23.739C44.6206 22.5787 46.5389 23.155 46.7623 24.6929C46.9857 26.2309 48.904 26.8071 49.9379 25.6468C50.9718 24.4865 52.8901 25.0627 53.1135 26.6007L53.1825 27.0759C53.3786 28.4257 55.0622 28.9315 55.9696 27.9131L56.4493 27.3748C57.2828 26.4394 58.8299 27.0545 58.7936 28.3069C58.7573 29.5593 60.3044 30.1744 61.1379 29.239L61.6176 28.7007C62.525 27.6823 64.2086 28.188 64.4047 29.5379L64.5427 30.4883C64.7388 31.8381 66.4224 32.3438 67.3298 31.3255L67.8095 30.7872C68.6431 29.8518 70.1902 30.4669 70.1538 31.7193C70.1175 32.9717 71.6646 33.5868 72.4982 32.6514L75.2697 29.541" stroke="black"/>
<path d="M29.5996 40.4702L32.211 37.5397C33.2449 36.3794 35.1632 36.9556 35.3866 38.4936C35.61 40.0315 37.5283 40.6077 38.5622 39.4474C39.5961 38.2872 41.5144 38.8634 41.7378 40.4013C41.9612 41.9393 43.8795 42.5155 44.9134 41.3552C45.9473 40.1949 47.8656 40.7711 48.089 42.3091L48.158 42.7843C48.3541 44.1341 50.0377 44.6399 50.9451 43.6215L51.4248 43.0832C52.2583 42.1478 53.8054 42.7629 53.7691 44.0153C53.7328 45.2677 55.2799 45.8828 56.1134 44.9474L56.5931 44.4091C57.5005 43.3907 59.1841 43.8965 59.3802 45.2463L59.5182 46.1967C59.7143 47.5465 61.3979 48.0522 62.3053 47.0339L62.785 46.4956C63.6185 45.5602 65.1657 46.1753 65.1293 47.4277C65.093 48.6801 66.6401 49.2952 67.4736 48.3598L70.2452 45.2494" stroke="black"/>
</svg>
