<svg width="95" height="91" viewBox="0 0 95 91" fill="none" xmlns="http://www.w3.org/2000/svg">
<path d="M12.1 56.3V18.5C12.1 14.5235 15.3236 11.3 19.3 11.3H32.5M81.1 56.3V18.5C81.1 14.5235 77.8765 11.3 73.9 11.3H61.9M32.5 11.3V13.1C32.5 17.0764 35.7236 20.3 39.7 20.3H54.7C58.6765 20.3 61.9 17.0764 61.9 13.1V11.3M32.5 11.3H61.9" stroke="black" stroke-width="1.2"/>
<path d="M66.1 25.7H26.5C25.1745 25.7 24.1 26.7745 24.1 28.1V47.3C24.1 48.6255 25.1745 49.7 26.5 49.7H66.1C67.4255 49.7 68.5 48.6255 68.5 47.3V28.1C68.5 26.7745 67.4255 25.7 66.1 25.7Z" stroke="black" stroke-width="1.2" stroke-dasharray="2.4 2.4"/>
<path d="M15.7 59.3V76.1H78.1V59.3" stroke="black" stroke-width="1.2"/>
<line x1="12.1" y1="56.3" x2="81.7" y2="56.3" stroke="black" stroke-width="1.2"/>
<path d="M28 33.5L29.5 32C30.3284 31.1716 31.6716 31.1716 32.5 32C33.3284 32.8284 34.6716 32.8284 35.5 32C36.3284 31.1716 37.6716 31.1716 38.5 32C39.3284 32.8284 40.6716 32.8284 41.5 32C42.3284 31.1716 43.6716 31.1716 44.5 32L44.6975 32.1975C45.4168 32.9168 46.5832 32.9168 47.3025 32.1975L47.7753 31.7247C48.3932 31.1068 49.4291 31.2432 49.866 32C50.303 32.7568 51.3389 32.8932 51.9568 32.2753L52.4295 31.8025C53.1489 31.0832 54.3152 31.0832 55.0346 31.8025L55.4295 32.1975C56.1489 32.9168 57.3152 32.9168 58.0346 32.1975L58.5073 31.7247C59.1252 31.1068 60.1611 31.2432 60.5981 32C61.035 32.7568 62.0709 32.8932 62.6888 32.2753L64.4641 30.5" stroke="black"/>
<path d="M28 41L29.5 39.5C30.3284 38.6716 31.6716 38.6716 32.5 39.5C33.3284 40.3284 34.6716 40.3284 35.5 39.5C36.3284 38.6716 37.6716 38.6716 38.5 39.5C39.3284 40.3284 40.6716 40.3284 41.5 39.5C42.3284 38.6716 43.6716 38.6716 44.5 39.5L44.6975 39.6975C45.4168 40.4168 46.5832 40.4168 47.3025 39.6975L47.7753 39.2247C48.3932 38.6068 49.4291 38.7432 49.866 39.5C50.303 40.2568 51.3389 40.3932 51.9568 39.7753L52.4295 39.3025C53.1489 38.5832 54.3152 38.5832 55.0346 39.3025L55.4295 39.6975C56.1489 40.4168 57.3152 40.4168 58.0346 39.6975L58.5073 39.2247C59.1252 38.6068 60.1611 38.7432 60.5981 39.5C61.035 40.2568 62.0709 40.3932 62.6888 39.7753L64.4641 38" stroke="black"/>
</svg>
