<svg width="83" height="78" viewBox="0 0 83 78" fill="none" xmlns="http://www.w3.org/2000/svg">
<path d="M6 49.8V12C6 8.02354 9.22355 4.79999 13.2 4.79999H26.4M75 49.8V12C75 8.02354 71.7765 4.79999 67.8 4.79999H55.8M26.4 4.79999V6.59999C26.4 10.5764 29.6236 13.8 33.6 13.8H48.6C52.5765 13.8 55.8 10.5764 55.8 6.59999V4.79999M26.4 4.79999H55.8" stroke="black" stroke-width="1.2"/>
<path d="M60 19.2H20.4C19.0745 19.2 18 20.2745 18 21.6V40.8C18 42.1255 19.0745 43.2 20.4 43.2H60C61.3255 43.2 62.4 42.1255 62.4 40.8V21.6C62.4 20.2745 61.3255 19.2 60 19.2Z" stroke="black" stroke-width="1.2" stroke-dasharray="2.4 2.4"/>
<path d="M9.59999 52.8V69.6H72V52.8" stroke="black" stroke-width="1.2"/>
<line x1="6" y1="49.8" x2="75.6" y2="49.8" stroke="black" stroke-width="1.2"/>
<path d="M21.9 27L23.4 25.5C24.2284 24.6716 25.5716 24.6716 26.4 25.5C27.2284 26.3284 28.5716 26.3284 29.4 25.5C30.2284 24.6716 31.5716 24.6716 32.4 25.5C33.2284 26.3284 34.5716 26.3284 35.4 25.5C36.2284 24.6716 37.5716 24.6716 38.4 25.5L38.5975 25.6975C39.3168 26.4168 40.4832 26.4168 41.2025 25.6975L41.6752 25.2247C42.2932 24.6068 43.3291 24.7432 43.766 25.5C44.203 26.2568 45.2389 26.3932 45.8568 25.7753L46.3295 25.3025C47.0489 24.5832 48.2152 24.5832 48.9346 25.3025L49.3295 25.6975C50.0489 26.4168 51.2152 26.4168 51.9346 25.6975L52.4073 25.2247C53.0252 24.6068 54.0611 24.7432 54.4981 25.5C54.935 26.2568 55.9709 26.3932 56.5888 25.7753L58.3641 24" stroke="black"/>
<path d="M21.9 34.5L23.4 33C24.2284 32.1716 25.5716 32.1716 26.4 33C27.2284 33.8284 28.5716 33.8284 29.4 33C30.2284 32.1716 31.5716 32.1716 32.4 33C33.2284 33.8284 34.5716 33.8284 35.4 33C36.2284 32.1716 37.5716 32.1716 38.4 33L38.5975 33.1975C39.3168 33.9168 40.4832 33.9168 41.2025 33.1975L41.6752 32.7247C42.2932 32.1068 43.3291 32.2432 43.766 33C44.203 33.7568 45.2389 33.8932 45.8568 33.2753L46.3295 32.8025C47.0489 32.0832 48.2152 32.0832 48.9346 32.8025L49.3295 33.1975C50.0489 33.9168 51.2152 33.9168 51.9346 33.1975L52.4073 32.7247C53.0252 32.1068 54.0611 32.2432 54.4981 33C54.935 33.7568 55.9709 33.8932 56.5888 33.2753L58.3641 31.5" stroke="black"/>
</svg>
