<svg width="71" height="66" viewBox="0 0 71 66" fill="none" xmlns="http://www.w3.org/2000/svg">
<path d="M0.600006 45.6V7.80001C0.600006 3.82356 3.82356 0.600006 7.80001 0.600006H21M69.6 45.6V7.80001C69.6 3.82356 66.3765 0.600006 62.4 0.600006H50.4M21 0.600006V2.40001C21 6.37646 24.2236 9.60001 28.2 9.60001H43.2C47.1765 9.60001 50.4 6.37646 50.4 2.40001V0.600006M21 0.600006H50.4" stroke="black" stroke-width="1.2"/>
<path d="M54.6 15H15C13.6745 15 12.6 16.0745 12.6 17.4V36.6C12.6 37.9255 13.6745 39 15 39H54.6C55.9255 39 57 37.9255 57 36.6V17.4C57 16.0745 55.9255 15 54.6 15Z" stroke="black" stroke-width="1.2" stroke-dasharray="2.4 2.4"/>
<path d="M4.2 48.6V65.4H66.6V48.6" stroke="black" stroke-width="1.2"/>
<line x1="0.600006" y1="45.6" x2="70.2" y2="45.6" stroke="black" stroke-width="1.2"/>
<path d="M16.5 22.8L18 21.3C18.8284 20.4716 20.1716 20.4716 21 21.3C21.8284 22.1284 23.1716 22.1284 24 21.3C24.8284 20.4716 26.1716 20.4716 27 21.3C27.8284 22.1284 29.1716 22.1284 30 21.3C30.8284 20.4716 32.1716 20.4716 33 21.3L33.1975 21.4975C33.9168 22.2169 35.0832 22.2169 35.8025 21.4975L36.2753 21.0248C36.8932 20.4068 37.9291 20.5432 38.366 21.3C38.803 22.0568 39.8389 22.1932 40.4568 21.5753L40.9295 21.1025C41.6489 20.3832 42.8152 20.3832 43.5346 21.1025L43.9295 21.4975C44.6489 22.2169 45.8152 22.2169 46.5346 21.4975L47.0073 21.0248C47.6252 20.4068 48.6611 20.5432 49.0981 21.3C49.535 22.0568 50.5709 22.1932 51.1888 21.5753L52.9641 19.8" stroke="black"/>
<path d="M16.5 30.3L18 28.8C18.8284 27.9716 20.1716 27.9716 21 28.8C21.8284 29.6284 23.1716 29.6284 24 28.8C24.8284 27.9716 26.1716 27.9716 27 28.8C27.8284 29.6284 29.1716 29.6284 30 28.8C30.8284 27.9716 32.1716 27.9716 33 28.8L33.1975 28.9975C33.9168 29.7169 35.0832 29.7169 35.8025 28.9975L36.2753 28.5248C36.8932 27.9068 37.9291 28.0432 38.366 28.8C38.803 29.5568 39.8389 29.6932 40.4568 29.0753L40.9295 28.6025C41.6489 27.8832 42.8152 27.8832 43.5346 28.6025L43.9295 28.9975C44.6489 29.7169 45.8152 29.7169 46.5346 28.9975L47.0073 28.5248C47.6252 27.9068 48.6611 28.0432 49.0981 28.8C49.535 29.5568 50.5709 29.6932 51.1888 29.0753L52.9641 27.3" stroke="black"/>
</svg>
