<svg width="299" height="297" viewBox="0 0 299 297" fill="none" xmlns="http://www.w3.org/2000/svg">
<path d="M228 60.3494C228 77.6632 190.84 91.6987 145 91.6987C99.1604 91.6987 62 77.6632 62 60.3494C62 43.0356 99.1604 29 145 29C190.84 29 228 43.0356 228 60.3494Z" fill="url(#paint0_radial_118_69)"/>
<path d="M228 60.3494C228 77.6632 190.84 91.6987 145 91.6987C99.1604 91.6987 62 77.6632 62 60.3494M228 60.3494C228 43.0356 190.84 29 145 29C99.1604 29 62 43.0356 62 60.3494M228 60.3494V182.651C228 199.964 190.84 214 145 214C99.1604 214 62 199.964 62 182.651V60.3494" stroke="black"/>
<path d="M145 91.4207C190.84 91.4207 228 77.3531 228 60V232.579C228 249.932 190.84 264 145 264C99.1604 264 62 249.932 62 232.579V60C62 77.3531 99.1604 91.4207 145 91.4207Z" fill="url(#paint1_linear_118_69)"/>
<path d="M145 91.4207C190.84 91.4207 228 77.3531 228 60V232.579C228 249.932 190.84 264 145 264C99.1604 264 62 249.932 62 232.579V60C62 77.3531 99.1604 91.4207 145 91.4207Z" fill="url(#paint2_radial_118_69)" fill-opacity="0.5"/>
<path d="M145 91.4207C190.84 91.4207 228 77.3531 228 60V232.579C228 249.932 190.84 264 145 264C99.1604 264 62 249.932 62 232.579V60C62 77.3531 99.1604 91.4207 145 91.4207Z" stroke="black"/>
<path d="M264 156.827C264 112.307 232.485 104.197 218.67 105.059C218.67 105.059 210.899 106.354 203.128 108.942C198.188 110.588 196.653 115.413 199.243 124.472C201.833 133.532 211.331 130.081 216.08 128.355L216.08 128.355C225.146 129.218 241.983 138.191 241.983 162.004C241.983 177.218 235.639 183.733 229.031 186.005C225.296 187.289 221.476 187.217 218.67 186.594C212.194 186.162 199.502 188.147 200.538 199.536C201.574 210.925 203.992 215.066 209.604 213.772C224.714 214.635 264 201.348 264 156.827Z" fill="url(#paint3_linear_118_69)"/>
<path d="M216.08 128.355C225.146 129.218 241.983 138.191 241.983 162.004C241.983 177.218 235.639 183.733 229.031 186.005M216.08 128.355C211.331 130.081 201.833 133.532 199.243 124.472C196.653 115.413 198.188 110.588 203.128 108.942C210.899 106.354 218.67 105.059 218.67 105.059C232.485 104.197 264 112.307 264 156.827C264 201.348 224.714 214.635 209.604 213.772C203.992 215.066 201.574 210.925 200.538 199.536C199.502 188.147 212.194 186.162 218.67 186.594C221.476 187.217 225.296 187.289 229.031 186.005M216.08 128.355L205.719 127.061M229.031 186.005L213.49 191.771" stroke="black"/>
<path d="M226 62.5C226 79.897 189.735 94 145 94C100.265 94 64 79.897 64 62.5C64 45.103 100.265 31 145 31C189.735 31 226 45.103 226 62.5Z" fill="url(#paint4_radial_118_69)" stroke="url(#paint5_linear_118_69)" stroke-width="3"/>
<path d="M96.6157 115.394C98.8112 115.252 101.613 116.097 104.406 117.344C107.769 118.739 111.257 120.938 114.011 123.639C117.87 126.208 120.692 129.937 121.741 133.474C123.451 130.915 127.061 129.742 131.211 129.992C134.201 130.076 137.628 131.187 140.424 133.194C143.804 135.62 146.05 138.9 147.771 142.109C149.668 145.95 150.859 149.89 151.476 153.781C151.81 155.996 152.218 158.287 151.822 160.342C150.247 161.732 147.426 161.248 145.086 160.968C145.204 163.075 145.454 165.224 145.785 167.399C146.865 174.199 149.811 181.046 151.968 187.947C152.564 190.017 153.201 192.105 153.698 194.19C156.538 195.905 158.445 198.863 159.198 201.756C160.582 206.837 160.8 211.993 160.977 217.151C163.17 215.346 164.429 212.782 164.799 210.067C164.958 208.796 164.41 207.415 164.803 206.191C166.312 206.127 167.243 207.567 167.955 208.649C170.754 213.421 171.157 219.027 169.13 223.637C167.958 226.327 165.87 228.757 162.954 230.161C161.065 230.957 158.969 231.445 156.859 231.512C152.865 231.544 148.898 231.165 144.938 230.924C136.873 230.332 129.031 229.257 121.424 227.908C106.018 223.008 92.4373 215.832 79.7268 208.808C77.9095 207.648 76.066 206.559 74.3035 204.944C72.0139 202.858 69.9798 199.787 68.7845 196.668C67.5386 193.543 67.1021 190.382 67.7247 188.074C68.3195 185.988 69.8497 184.691 71.7101 184.106C73.8849 183.414 76.6524 184.011 79.3435 185.213C79.8511 185.515 79.7683 184.749 79.8825 184.462C80.911 178.476 82.0982 172.64 83.3281 166.853C84.583 160.974 85.7968 155.077 87.5515 149.541C88.015 147.973 88.7064 146.542 89.6531 145.378C89.4101 144.971 89.1782 144.583 88.9462 144.195C88.1565 145.121 86.2871 145.005 85.1037 143.538C83.9749 140.536 84.685 137.642 86.6019 136.454C86.0314 135.023 85.558 133.537 85.6671 132.259C86.7349 132.55 87.8168 133.632 88.8452 133.575C89.7243 133.175 89.5909 131.86 89.5525 130.811C89.1975 127.496 88.3293 123.958 88.832 121.116C89.1594 118.724 90.2108 116.742 92.3108 116.145C93.038 115.894 94.0881 116.226 95.101 116.61C95.3766 115.984 95.7859 115.42 96.6157 115.394Z" fill="#0C2B47"/>
<path d="M96.5154 116.291C97.6647 115.886 99.3144 116.195 100.954 116.675C104.809 117.742 109.234 120.049 112.757 123.238C114.149 124.493 115.809 125.522 117.077 126.893C118.964 128.942 120.366 131.267 120.961 133.498C121.235 134.464 120.826 135.208 120.64 136.009C120.403 136.784 120.395 137.726 119.732 138.223C119.028 137.632 119.085 136.857 118.837 136.19C118.348 134.244 117.125 132.239 115.562 130.443C114.354 130.691 114.338 132.014 113.458 132.584C112.038 133.514 110.085 133.873 107.953 133.551C108.623 132.803 109.536 132.121 109.21 130.757C108.861 130.967 108.532 131.175 108.225 131.413C106.991 131.201 105.696 130.793 104.589 130.864C103.11 130.937 101.814 131.4 100.92 132.251C100.128 132.956 100.429 134.401 100.394 135.575C98.6856 134.028 98.2127 132.011 97.8457 130.279C96.8095 130.016 95.6856 129.618 94.9035 129.962C93.7044 130.369 93.4195 131.907 93.9473 133.471C94.303 134.462 95.1086 135.439 95.3656 136.456C95.6315 137.453 95.7969 138.445 96.2442 139.462C96.773 140.684 97.4206 141.88 97.94 143.113C95.91 141.193 94.0447 138.994 91.7752 137.448C90.2562 136.43 88.6781 136.148 87.2852 136.135C86.7842 135.232 86.5028 134.316 86.3529 133.423C87.2027 133.756 88.1003 134.227 88.9252 134.291C90.0839 134.237 90.3139 132.972 90.3015 131.851C90.239 129.471 89.5235 126.876 89.4233 124.538C89.3476 123 89.3008 121.44 89.807 120.28C90.4236 118.764 91.1489 117.221 92.799 116.819C93.5883 116.604 94.71 117.143 95.7485 117.626C95.8999 117.107 95.943 116.443 96.5154 116.291Z" fill="#6C4C49"/>
<path d="M125.805 131.465C128.532 130.442 132.211 130.317 135.977 131.579C137.935 132.201 139.743 133.382 141.329 134.696C141.272 135.471 141.167 136.278 141.516 137.15C141.776 137.866 142.256 138.581 142.447 139.301C142.136 140.37 141.012 141.044 141.184 142.336C141.389 144.037 143.476 145.554 143.663 147.286C144.09 149.205 141.932 149.836 141.755 151.509C141.418 153.19 142.805 155.076 143.104 156.852C143.255 157.935 142.64 158.761 141.708 159.113C140.788 158.413 139.756 157.689 139.338 156.661C138.161 154.062 138.069 151.504 137.871 149.031C137.574 146.033 137.847 143.203 137.492 140.248C137.332 140.247 137 140.226 136.829 140.215C136.799 144.533 136.754 148.943 137.594 153.593C137.91 154.948 138.309 156.358 139.125 157.694C139.829 158.827 141.156 159.454 142.283 160.092C142.41 160.927 142.66 161.814 142.512 162.584C142.186 163.203 141.496 163.582 141.346 164.301C141.159 165.083 141.106 165.927 140.776 166.646C140.25 167.818 139.415 168.826 139.148 170.152C138.72 171.989 139.193 174.377 140.941 176.092C141.742 176.979 142.89 177.275 143.913 177.659C143.863 178.383 143.859 179.204 143.314 179.675C142.149 180.872 140.501 181.855 140.328 183.778C140.048 185.937 141.757 188.215 143.689 189.64C146.297 191.688 149.494 192.441 152.519 192.804C154.28 199.967 155.69 207.29 155.305 214.572C155.22 216.29 155.157 218.036 154.841 219.736C154.162 219.764 153.502 219.781 152.832 219.798C152.905 220.044 152.97 220.311 153.035 220.578C153.299 221.535 153.082 222.488 152.801 223.385C152.04 225.721 150.901 227.938 149.754 230.175C149.724 230.237 149.694 230.299 149.664 230.361C146.198 229.993 142.74 229.765 139.295 229.576C133.249 228.932 127.33 228.03 121.579 226.918C115.54 225.131 109.697 223.434 104.193 221.186C104.616 219.43 105.769 218.184 107.175 217.905C109.086 217.318 111.117 218.357 113.119 218.696C112.38 211.005 112.057 203.592 112.361 196.654C116.259 195.786 119.865 194.002 123.016 191.583C123.516 191.225 123.973 190.608 124.774 190.964C128.502 191.899 132.424 193.803 135.312 196.927C136.181 197.79 136.598 199.149 137.786 199.624C137.502 198.298 136.547 197.159 135.599 196.14C132.737 193.135 128.977 191.271 125.337 190.292C124.299 190.17 123.932 188.978 123.417 188.176C125.973 187.142 128.585 186.205 131.15 185.151C132.98 184.368 135.167 184.446 137.11 183.897C138.014 183.767 138.197 182.565 137.445 181.825C136.716 181.325 135.868 181.212 135.091 180.925C135.971 180.535 136.983 180.359 137.785 179.843C138.395 179.459 138.443 178.344 137.545 177.874C136.788 177.585 136.023 177.518 135.259 177.29C136.07 176.554 137.765 176.419 137.592 174.946C137.597 174.135 136.637 173.608 135.918 173.477C133.774 173.106 131.925 173.71 129.938 173.821C131.034 172.818 132.575 172.261 133.459 171.04C133.853 170.568 133.66 169.807 133.625 169.168C132.807 168.873 131.952 168.63 131.232 168.831C129.421 169.222 127.778 169.935 126.199 170.704C126.153 170.606 126.052 170.411 125.997 170.314C125.949 169.275 126.629 168.176 125.648 167.119C124.964 166.696 124.185 166.73 123.759 167.174C121.296 169.705 119.555 172.977 116.765 175.216C116.422 174.814 116.19 174.236 115.715 173.982C114.563 174.157 113.482 174.537 112.409 174.857C112.751 172.024 113.229 169.263 113.769 166.559C113.758 166.189 113.992 165.715 113.571 165.338C113.151 165.351 113.149 165.852 113.036 166.169C112.715 167.599 112.497 169.084 112.28 170.578C109.311 169.241 106.463 167.367 103.855 165.148C101.585 163.232 99.5433 160.922 98.0002 158.394C96.2857 155.665 94.7587 152.885 93.0648 150.165C91.6244 147.862 90.3604 145.489 88.9494 143.174C88.2954 143.48 87.8718 144.325 86.8888 143.939C86.399 143.776 85.6995 143.625 85.5407 142.933C84.8219 140.098 85.5835 137.051 88.1812 136.937C89.7049 136.782 91.5401 137.901 93.0541 139.189C97.1261 142.708 100.116 147.289 103.744 151.293C106.559 154.181 110.337 156.024 113.713 156.216C115.97 156.271 117.811 155.347 119.392 154.237C120.22 153.64 121.123 153.119 121.77 152.342C121.515 152.066 121.25 151.81 120.975 151.545C122.448 151.733 123.911 151.762 125.139 151.333C126.301 150.968 127.021 150.056 127.694 149.187C127.536 149.056 127.241 148.792 127.084 148.66C126.394 149.41 125.772 150.286 124.689 150.627C122.849 151.21 120.571 150.956 118.376 150.207C115.744 149.152 113.358 146.781 112.276 144.257C113.317 144.43 114.466 144.556 115.113 143.949C115.897 143.284 116.497 142.179 115.861 140.843C114.823 139.468 113.131 139.292 111.801 138.785C113.895 138.619 116.301 139.206 118.549 139.281C119.797 139.221 121.127 138.817 121.167 137.552C121.502 134.769 123.056 132.449 125.805 131.465Z" fill="#FFC973"/>
<path d="M141.329 134.696C143.815 136.891 145.584 139.527 146.983 142.163C149.593 147.486 150.802 152.998 151.139 158.327C151.087 159.011 151.314 160.03 150.472 160.207C147.863 161.013 144.624 160.212 141.708 159.113C142.64 158.761 143.255 157.935 143.104 156.852C142.805 155.076 141.418 153.19 141.755 151.509C141.932 149.836 144.09 149.205 143.663 147.286C143.476 145.554 141.389 144.037 141.184 142.336C141.012 141.044 142.136 140.37 142.447 139.301C142.256 138.581 141.776 137.866 141.516 137.15C141.167 136.278 141.272 135.471 141.329 134.696Z" fill="#A8654C"/>
<path d="M112.803 133.942C114.159 133.486 114.939 132.381 115.546 131.235C117.531 133.609 118.38 136.245 118.572 138.628C117.254 138.522 115.946 138.404 114.633 138.217C114.325 137.904 114.132 137.303 113.685 137.198C113.029 136.924 113.04 137.665 112.827 137.967C111.56 138.058 110.219 138.082 109.26 138.657C108.821 139.242 109.362 140.323 109.639 141.159C110.061 142.428 111.273 143.512 111.813 144.764C112.68 146.659 114.286 148.342 116.035 149.707C112.697 152.357 106.42 151.144 102.057 147.08C98.9769 144.107 96.7574 140.225 95.9963 136.631C97.1291 137.189 98.2736 137.957 99.408 138.184C98.7416 137.009 97.4735 136.9 96.5121 136.182C94.6254 134.855 93.6919 132.123 94.7961 131.09C95.2786 130.402 96.3581 130.542 97.3793 130.896C97.7929 132.565 98.3911 134.495 99.9168 135.992C100.37 136.217 100.814 136.273 101.261 136.398C101.078 134.906 100.812 133.188 101.873 132.458C103.237 131.581 105.19 131.232 107.384 131.961C106.863 132.5 105.576 132.402 105.695 133.457C108.293 134.614 110.806 134.604 112.803 133.942Z" fill="#FDC4AD"/>
<path d="M129.536 136.044C129.599 135.988 129.66 135.934 129.717 135.884C130.709 136.79 131.557 137.815 132.665 138.634C133.098 139.041 133.892 139.457 133.822 139.992C133.417 139.915 133.018 139.756 132.661 139.466C131.387 138.525 130.262 137.406 129.375 136.224C129.432 136.16 129.485 136.101 129.536 136.044Z" fill="#0C2B47"/>
<path d="M106.731 134.972C107.137 135.069 107.554 135.186 107.96 135.294C108.304 135.895 108.767 136.651 108.39 137.073C108.159 137.596 107.227 137.408 106.729 136.744C106.159 136.035 106.516 135.434 106.731 134.972Z" fill="#0C2B47"/>
<path d="M128.733 140.867C129.984 140.677 131.382 142.402 130.829 143.264C130.579 143.989 129.36 143.856 128.611 143.177C128.022 142.308 127.868 141.165 128.733 140.867Z" fill="#0C2B47"/>
<path d="M104.217 141.982C103.873 141.03 104.773 140.83 105.329 140.548C106.108 142.498 107.569 144.62 109.638 145.636C110.354 146.067 111.397 146.099 111.767 146.99C110.004 146.798 108.045 145.615 106.733 143.995C106.1 143.25 105.625 142.445 105.139 141.64C104.846 141.767 104.532 141.885 104.217 141.982Z" fill="#0C2B47"/>
<path d="M100.297 146.227C101.432 147.185 102.495 148.298 103.713 149.121C104.371 149.606 105.172 149.952 105.623 150.678C104.5 150.309 103.224 149.87 102.324 148.808C101.606 147.977 100.957 147.102 100.297 146.227Z" fill="#FDC4AD"/>
<path d="M105.871 151.185C106.241 150.994 106.625 150.682 107.198 151.081C107.903 152.063 108.304 153.142 108.812 154.176C107.215 153.543 105.728 152.384 104.405 151.106C104.887 151.139 105.496 151.456 105.871 151.185Z" fill="#B7EBE9"/>
<path d="M87.0453 154.117C87.7809 151.321 88.4083 148.382 90.0338 146.278C92.246 149.851 94.3894 153.447 96.5245 157.074C97.8495 159.283 99.266 161.518 101.124 163.408C101.733 164.085 102.706 164.662 102.848 165.595C103.78 169.369 104.672 173.155 105.456 176.988C104.973 176.944 104.449 176.893 104.424 177.516C105.948 178.262 107.2 177.551 108.419 177.133C110.75 176.182 113.19 175.405 115.695 174.704C117.87 179.401 119.942 184.233 122.906 188.715C123.16 189.141 123.503 189.543 123.609 190.018C120.233 192.87 116.234 194.986 111.837 195.882C108.029 196.555 103.697 195.564 100.071 192.672C97.6911 190.771 95.9295 187.915 94.6205 185.093C93.1961 182.178 92.2759 179.144 91.6913 176.202C90.5116 170.489 90.2766 165.014 90.2629 159.736C89.8955 158.715 89.5324 159.567 89.5901 160.064C89.5826 164.602 89.8041 169.297 90.6558 174.157C91.2133 177.511 92.0887 180.998 93.6502 184.396C94.8027 187.106 96.3059 189.817 98.3492 191.976C100.541 194.288 103.216 195.731 105.873 196.505C105.777 197.842 105.684 199.219 105.549 200.579C97.1172 195.03 88.7697 189.555 80.4202 185.664C82.2206 174.837 84.3772 164.291 87.0453 154.117Z" fill="#B7EBE9"/>
<path d="M142.283 160.092C142.935 160.286 143.566 160.472 144.218 160.666C144.634 163.637 144.608 166.583 145.389 169.634C147.119 177.31 150.521 184.983 152.519 192.804C149.494 192.441 146.297 191.688 143.689 189.64C141.757 188.215 140.048 185.937 140.328 183.778C140.501 181.855 142.149 180.872 143.314 179.675C143.859 179.204 143.863 178.383 143.913 177.659C142.89 177.275 141.742 176.979 140.941 176.092C139.193 174.377 138.72 171.989 139.148 170.152C139.415 168.826 140.25 167.818 140.776 166.646C141.106 165.927 141.159 165.083 141.346 164.301C141.496 163.582 142.186 163.203 142.512 162.584C142.66 161.814 142.41 160.927 142.283 160.092Z" fill="#A8654C"/>
<path d="M123.227 169.137C123.749 168.437 124.325 167.804 125.102 167.38C126.007 169.062 124.812 170.26 124.424 171.574C124.159 172.019 124.321 172.241 124.903 172.248C127.354 171.12 129.699 169.718 132.67 169.472C132.767 169.597 132.971 169.836 133.068 169.95C132.713 170.962 131.761 171.486 130.932 172.063C129.911 172.791 128.771 173.365 127.717 174.045C127.459 174.269 126.998 174.445 127.155 174.927C127.318 174.968 127.622 175.041 127.774 175.073C130.213 174.797 132.519 174.127 135.085 174.155C135.635 174.154 136.216 174.322 136.785 174.481C136.697 174.876 136.84 175.469 136.409 175.643C134.775 176.516 132.834 176.904 130.987 177.368C130.462 177.477 130.101 177.828 129.792 178.216C132.457 178.768 134.922 177.709 137.661 178.698C136.704 179.853 134.964 179.9 133.525 180.311C132.687 180.558 131.564 180.541 131.244 181.44C133.121 181.866 134.969 181.432 136.89 182.297C136.977 182.412 137.151 182.653 137.248 182.778C135.658 183.898 133.257 183.421 131.455 184.142C128.584 185.294 125.699 186.356 122.858 187.496C120.62 183.825 118.754 179.992 117.138 176.156C117.615 175.369 118.484 174.96 119.046 174.267C120.485 172.585 121.818 170.818 123.227 169.137Z" fill="#FDC4AD"/>
<path d="M126.199 170.704C126.17 171.627 125.063 170.086 125.997 170.314C126.052 170.411 126.153 170.606 126.199 170.704Z" fill="#4D5E6E"/>
<path d="M165.593 207.068C168.501 209.821 169.276 213.664 169.516 217.086C169.423 219.895 168.925 222.827 167.192 225.157C165.379 226.42 163.15 227.566 160.666 227.204C159.427 227.082 158.232 226.308 157.819 225.179C157.652 224.527 157.959 223.919 158.136 223.328C158.592 222.161 158.935 220.94 159.136 219.697C159.145 219.617 159.16 219.536 159.182 219.454C162.31 217.898 164.409 215.117 165.349 212.04C165.833 210.47 165.606 208.73 165.593 207.068Z" fill="#FFC973"/>
<path d="M74.4809 184.583C77.8479 184.796 81.5271 186.834 85.0503 188.771C91.395 192.274 97.7769 196.265 104.177 200.585C104.552 200.845 104.958 201.113 105.222 201.549C105.28 202.577 105.143 203.546 105.049 204.543C104.441 209.635 103.886 214.954 102.985 220.342C99.898 219.052 96.9112 217.396 93.9511 216.038C88.6854 213.026 83.5406 210.028 78.4774 207.235C76.2057 205.83 73.7958 204.101 71.8999 201.352C67.8636 196.139 66.764 188.628 69.7873 186.086C70.968 184.989 72.5865 184.378 74.4809 184.583Z" fill="#4D5E6E"/>
<path d="M153.035 220.578C155.158 220.75 157.16 220.188 159.136 219.697C158.935 220.94 158.592 222.161 158.136 223.328C157.959 223.919 157.652 224.527 157.819 225.179C158.232 226.308 159.427 227.082 160.666 227.204C163.15 227.566 165.379 226.42 167.192 225.157C165.585 228.131 162.119 230.107 158.395 230.495C155.528 230.795 152.587 230.689 149.754 230.175C150.901 227.938 152.04 225.721 152.801 223.385C153.082 222.488 153.299 221.535 153.035 220.578Z" fill="#A8654C"/>
<defs>
<radialGradient id="paint0_radial_118_69" cx="0" cy="0" r="1" gradientUnits="userSpaceOnUse" gradientTransform="translate(145 205.5) rotate(-90) scale(164.115 381.5)">
<stop/>
<stop offset="1" stop-color="white"/>
</radialGradient>
<linearGradient id="paint1_linear_118_69" x1="62" y1="127.884" x2="231.984" y2="130.462" gradientUnits="userSpaceOnUse">
<stop stop-color="white"/>
<stop offset="1" stop-color="#C9C9C9"/>
</linearGradient>
<radialGradient id="paint2_radial_118_69" cx="0" cy="0" r="1" gradientTransform="matrix(37 142.649 -154.7 34.1439 145 96.8514)" gradientUnits="userSpaceOnUse">
<stop stop-color="white" stop-opacity="0"/>
<stop offset="1" stop-opacity="0.3"/>
</radialGradient>
<linearGradient id="paint3_linear_118_69" x1="226.6" y1="147.389" x2="264.06" y2="243.704" gradientUnits="userSpaceOnUse">
<stop stop-color="#F4F4F4"/>
<stop offset="1" stop-color="#737373"/>
</linearGradient>
<radialGradient id="paint4_radial_118_69" cx="0" cy="0" r="1" gradientUnits="userSpaceOnUse" gradientTransform="translate(145 208.348) rotate(-90) scale(164.904 372.307)">
<stop/>
<stop offset="1" stop-color="white"/>
</radialGradient>
<linearGradient id="paint5_linear_118_69" x1="174.765" y1="28.488" x2="120.323" y2="88.7077" gradientUnits="userSpaceOnUse">
<stop stop-color="white"/>
<stop offset="0.528874" stop-color="#D8D8D8"/>
<stop offset="1" stop-color="white"/>
</linearGradient>
</defs>
</svg>
